<svg width="374" height="95" viewBox="0 0 374 95" fill="none" xmlns="http://www.w3.org/2000/svg">
<rect width="374" height="95" fill="#132C33"/>
<mask id="mask0" mask-type="alpha" maskUnits="userSpaceOnUse" x="18" y="16" width="62" height="62">
<rect x="18.619" y="39.1429" width="6.28571" height="15.7143" rx="3.14286" fill="#C4C4C4"/>
<rect x="73.619" y="40.7143" width="6.28572" height="13.0952" rx="3.14286" fill="#C4C4C4"/>
<rect x="26.4762" y="27.0952" width="6.28572" height="40.3333" rx="3.14286" fill="#C4C4C4"/>
<rect x="34.3333" y="16.619" width="6.28572" height="61.2857" rx="3.14286" fill="#C4C4C4"/>
<rect x="42.1905" y="25" width="6.28571" height="44.5238" rx="3.14286" fill="#C4C4C4"/>
<rect x="50.0476" y="32.3333" width="6.28571" height="29.8571" rx="3.14285" fill="#C4C4C4"/>
<rect x="65.7619" y="32.3333" width="6.28571" height="29.8571" rx="3.14286" fill="#C4C4C4"/>
<rect x="57.9048" y="38.0952" width="6.28571" height="17.8095" rx="3.14286" fill="#C4C4C4"/>
</mask>
<g mask="url(#mask0)">
<rect x="16" y="14" width="66" height="66" fill="url(#paint0_linear)"/>
</g>
<rect x="89" y="11" width="2.3" height="72.7" fill="#126E82"/>
<path d="M110.818 46.254C109.622 46.254 108.738 45.266 108.738 43.862C108.738 42.536 109.57 41.418 110.844 41.418C111.962 41.418 112.69 42.328 112.69 43.914C112.69 45.604 112.092 46.254 110.818 46.254ZM109.44 32.734C110.194 32.786 110.792 32.864 111.182 32.994C111.598 33.124 111.728 33.28 111.78 33.774C111.832 34.398 111.91 35.256 111.962 36.192C108.92 36.556 103.694 37.284 102.68 37.258C101.796 37.258 101.328 36.53 100.652 35.62L100.184 35.802C100.184 36.322 100.236 36.972 100.418 37.44C100.704 38.246 101.978 39.468 102.914 39.468C103.668 39.468 104.162 39.026 105.358 38.714C106.84 38.324 109.414 37.752 112.014 37.466C112.092 38.584 112.118 39.65 112.144 40.404C111.832 40.326 111.468 40.274 111.078 40.274C108.946 40.274 107.568 42.042 107.568 44.044C107.568 46.67 109.622 48.75 112.196 47.684C111.208 50.206 108.608 52 105.436 53.17L105.748 53.768C110.948 52.65 114.77 49.764 114.77 44.824C114.77 43.342 114.432 42.094 113.678 41.288C113.652 39.988 113.652 38.558 113.678 37.31C118.748 36.868 120.646 37.518 121.582 37.518C122.154 37.518 122.466 37.336 122.466 36.764C122.466 35.802 121.01 35.256 119.97 35.256C119.45 35.256 118.15 35.516 113.704 35.984C113.704 35.412 113.73 34.944 113.756 34.632C113.782 33.956 114.198 33.54 114.198 32.89C114.198 32.188 112.508 31.59 111.338 31.59C110.61 31.59 109.908 31.954 109.388 32.24L109.44 32.734ZM128.058 43.186C128.214 47.944 130.814 50.232 132.868 51.116C134.09 51.61 134.948 51.142 134.948 50.31C134.948 49.66 134.532 49.582 134.714 48.308C134.818 47.476 135.598 45.292 136.196 43.498L135.546 43.212C134.766 44.85 133.856 46.696 133.024 47.918C132.79 48.256 132.478 48.308 132.088 48.126C131.048 47.606 129.644 45.994 129.644 43.004C129.644 40.17 130.684 38.584 130.684 37.388C130.684 36.27 129.254 35.022 128.214 34.554C127.642 34.32 126.992 34.242 126.342 34.164L126.134 34.528C127.85 35.802 128.162 36.556 128.162 37.986C128.162 39.338 127.98 41.262 128.058 43.186ZM144.36 40.742C145.348 42.692 145.478 44.694 145.686 45.812C145.816 46.436 146.206 46.748 146.674 46.748C147.506 46.748 147.922 46.176 147.922 44.98C147.922 43.16 147.168 40.69 145.66 39.182C144.36 37.908 143.034 36.998 140.486 36.634L140.304 37.206C142.124 37.934 143.528 39.104 144.36 40.742ZM159.442 51.532C157.804 51.532 156.842 50.83 156.842 49.92C156.842 48.906 158.454 47.996 160.898 47.996C161.73 47.996 162.536 48.074 163.29 48.204C163.264 50.622 162.432 51.532 159.442 51.532ZM164.564 41.08C164.564 39.858 164.59 38.766 164.668 37.83C167.372 37.44 169.686 36.894 170.622 36.556C171.194 36.348 171.584 36.114 171.584 35.568C171.584 34.918 170.648 34.632 169.998 34.632C169.686 34.632 169.244 34.918 168.438 35.204C167.684 35.438 166.358 35.75 164.824 36.036C164.902 35.464 164.98 34.996 165.058 34.606C165.214 33.956 165.578 33.696 165.578 33.15C165.578 32.396 163.888 31.642 162.614 31.642C161.834 31.642 161.184 31.902 160.664 32.162L160.716 32.656C161.548 32.76 162.068 32.864 162.614 33.046C163.056 33.202 163.186 33.358 163.186 33.878C163.186 34.138 163.16 35.1 163.134 36.296C161.782 36.478 160.352 36.608 159.026 36.608C156.66 36.608 155.724 35.984 154.45 34.97L154.034 35.308C155.334 37.57 156.946 38.22 159.39 38.22C160.612 38.22 161.86 38.142 163.082 38.012C163.056 38.818 163.056 39.624 163.056 40.378V41.47C162.016 41.574 160.95 41.626 159.91 41.626C157.44 41.626 156.426 41.028 157.96 39L157.44 38.714C154.554 41.366 156.4 43.212 160.014 43.212C161.028 43.212 162.068 43.16 163.108 43.082C163.16 44.486 163.212 45.76 163.264 46.8C162.77 46.748 162.25 46.722 161.73 46.722C158.428 46.722 155.75 47.944 155.75 50.024C155.75 52 157.674 53.196 160.352 53.196C163.29 53.196 165.11 51.896 165.11 49.712C165.11 49.374 165.084 49.036 165.084 48.672C166.93 49.296 168.568 50.31 169.868 51.506C170.388 51.974 170.674 52.234 171.194 52.234C171.662 52.234 172.026 51.922 172.026 51.324C172.026 50.726 171.636 50.18 170.986 49.66C170.206 49.01 168.074 47.632 164.928 47.034C164.824 45.838 164.668 44.512 164.616 42.926C167.138 42.614 169.322 42.146 170.258 41.782C170.778 41.6 171.116 41.288 171.116 40.82C171.116 40.196 170.336 39.91 169.634 39.91C169.374 39.91 168.932 40.196 167.996 40.508C167.008 40.82 165.812 41.08 164.564 41.262V41.08ZM190.956 32.968C191.554 33.02 192.048 33.072 192.49 33.176C192.958 33.306 193.166 33.54 193.192 33.956C193.27 35.022 193.244 37.024 193.244 38.532C191.008 39.026 187.94 39.754 186.12 40.196C186.172 39.104 186.224 38.168 186.276 37.622C186.38 36.582 186.822 36.452 186.822 35.958C186.822 35.23 185.106 34.216 183.936 34.216C183.26 34.216 182.61 34.45 182.064 34.658L182.09 35.178C182.584 35.23 183.208 35.282 183.598 35.464C184.014 35.646 184.144 35.802 184.222 36.556C184.3 37.362 184.3 38.922 184.3 40.664C182.506 41.106 179.932 41.756 179.36 41.756C178.736 41.756 178.086 41.08 177.644 40.404L177.254 40.56C177.254 41.106 177.228 41.652 177.41 42.016C177.826 43.004 178.84 43.94 179.594 43.94C180.296 43.94 181.414 43.238 184.3 42.25C184.326 44.668 184.3 47.112 184.378 48.568C184.508 51.636 186.666 52.442 190.592 52.442C193.244 52.442 195.428 52.26 196.494 52C197.378 51.792 197.716 51.506 197.716 50.96C197.716 50.206 196.884 49.842 195.948 49.842C195.194 49.842 193.088 50.544 189.864 50.544C186.562 50.544 186.042 50.154 185.964 47.554C185.912 46.41 185.964 43.94 186.068 41.704C187.94 41.158 190.748 40.508 193.192 40.066C193.14 41.444 193.01 43.238 192.828 43.992C192.646 44.59 192.36 44.668 191.918 44.668C191.45 44.668 190.15 44.356 188.98 44.018L188.798 44.538C189.838 45.032 191.008 45.526 191.398 46.358C191.658 46.904 191.918 47.034 192.36 47.034C193.426 47.034 194.102 46.228 194.362 45.006C194.648 43.862 194.804 41.6 194.882 39.806C195.272 39.754 195.61 39.702 195.948 39.676C197.898 39.494 198.808 39.728 199.9 39.728C200.68 39.728 201.122 39.546 201.122 38.922C201.122 37.986 200.004 37.518 198.86 37.518C198.34 37.518 196.962 37.752 194.96 38.168C195.012 37.076 195.064 36.14 195.116 35.386C195.168 34.45 195.662 34.242 195.662 33.8C195.662 33.02 194.05 31.928 192.698 31.928C192.152 31.928 191.528 32.188 190.904 32.474L190.956 32.968ZM214.15 33.228C214.462 33.488 214.566 33.852 214.254 34.45C213.344 36.114 209.418 42.588 207.312 46.254C205.934 48.62 204.816 50.31 204.816 51.376C204.816 52.156 205.284 52.78 205.882 52.78C206.532 52.78 206.844 52.338 207.104 51.714C207.494 50.7 207.936 49.14 208.69 47.528C209.86 45.11 211.966 42.744 214.306 42.744C215.814 42.744 216.23 43.654 216.23 44.772C216.23 46.332 215.97 47.866 215.996 49.4C215.996 51.688 217.348 52.884 219.61 52.884C222.548 52.884 225.668 50.934 226.63 45.11L226.11 44.954C224.992 47.918 222.912 50.856 220.052 50.856C218.674 50.856 218.024 50.206 218.024 48.828C218.024 47.554 218.128 46.098 218.102 44.876C218.024 42.822 216.932 41.73 214.8 41.73C213.812 41.73 212.616 42.12 211.29 42.874C211.082 43.004 210.978 42.9 211.108 42.692C212.174 40.846 214.722 37.284 215.866 36.01C216.542 35.204 217.296 34.996 217.296 34.45C217.296 33.566 216.1 32.318 214.644 32.032C214.15 31.902 213.318 31.902 212.746 32.006L212.616 32.5C213.084 32.656 213.786 32.916 214.15 33.228ZM243.662 31.98C244.65 32.786 244.676 33.15 244.208 33.488C242.986 34.346 237.5 36.088 233.106 36.946L233.236 37.596C236.642 37.31 238.774 36.946 240.204 36.66C240.984 37.336 241.114 38.116 241.14 39.416C241.14 39.806 241.14 40.196 241.14 40.586C238.982 40.82 234.64 41.314 232.924 41.314C232.222 41.314 231.754 40.768 231.13 39.962L230.714 40.092C230.74 40.742 230.844 41.236 230.974 41.548C231.286 42.25 232.404 43.446 233.106 43.446C233.782 43.446 234.354 43.108 235.082 42.926C236.044 42.64 239.008 42.172 241.062 41.938C240.646 46.826 238.67 49.998 233.808 52.988L234.172 53.456C239.97 51.09 242.726 47.216 243.168 41.756C244.936 41.6 247.172 41.496 248.368 41.496C249.72 41.496 250.812 41.73 251.28 41.73C251.852 41.73 252.112 41.47 252.112 40.924C252.112 40.092 250.604 39.494 249.408 39.494C248.94 39.494 248.706 39.676 247.068 39.91C246.262 40.04 244.78 40.196 243.246 40.352C243.246 40.118 243.246 39.884 243.246 39.65C243.246 38.454 243.61 38.246 243.61 37.674C243.61 37.336 242.856 36.686 241.998 36.244C243.35 35.906 244.546 35.49 245.95 34.944C246.574 34.71 247.51 34.762 247.51 34.268C247.51 33.748 246.86 33.046 246.366 32.656C245.846 32.266 245.144 31.876 243.974 31.642L243.662 31.98ZM260.453 40.56C260.609 41.054 260.895 41.574 261.207 41.99C261.597 42.484 262.117 42.9 262.637 42.9C263.183 42.9 264.093 42.692 265.419 42.51C265.757 43.004 265.913 43.55 265.913 44.408C265.913 45.396 265.861 47.216 265.783 48.568C263.365 48.776 261.051 49.01 260.297 49.01C259.543 49.01 258.997 48.594 258.503 48.048L258.191 48.178C258.217 48.776 258.269 49.114 258.425 49.426C258.659 49.972 259.751 51.038 260.453 51.038C260.973 51.038 261.519 50.7 262.403 50.466C264.223 49.998 267.863 49.608 269.891 49.686C272.335 49.738 274.051 50.31 274.727 50.31C275.221 50.31 275.533 49.998 275.533 49.53C275.533 48.75 273.713 47.814 272.777 47.814C272.491 47.814 272.231 48.048 271.191 48.126C270.177 48.178 268.877 48.282 267.499 48.412C267.603 47.06 267.759 45.604 267.889 44.772C267.967 44.278 268.201 43.836 268.201 43.472C268.201 43.004 267.681 42.614 267.005 42.328C269.085 42.094 271.113 41.938 271.841 41.86C272.491 41.808 272.725 41.418 272.725 41.028C272.725 40.456 271.269 39.858 270.333 39.858C269.839 39.858 269.917 40.404 267.161 40.846C265.445 41.132 263.781 41.314 262.819 41.314C262.039 41.314 261.389 40.898 260.739 40.352L260.453 40.56ZM291.135 41.236C291.759 42.588 291.733 43.68 292.643 43.68C293.163 43.68 293.657 43.342 293.657 42.666C293.657 41.6 293.007 40.716 292.071 39.988C291.447 39.468 290.849 39.13 290.069 38.766L289.783 39.026C290.277 39.598 290.797 40.534 291.135 41.236ZM299.481 42.25C299.793 41.652 300.287 41.392 300.287 40.924C300.287 40.17 298.909 38.922 297.843 38.792C297.401 38.74 296.907 38.818 296.543 38.844L296.439 39.208C297.375 39.624 297.791 39.962 297.791 40.404C297.791 42.588 293.553 49.426 286.819 52.884L287.105 53.326C293.475 51.116 297.505 46.566 299.481 42.25ZM286.611 42.718C287.313 44.122 287.339 45.214 288.275 45.214C288.899 45.214 289.237 44.772 289.237 44.174C289.237 43.212 288.561 42.224 287.391 41.34C286.949 40.976 286.247 40.456 285.519 40.144L285.207 40.43C285.727 41.054 286.195 41.782 286.611 42.718ZM320.335 37.96C320.595 36.946 320.777 35.906 320.907 35.308C321.115 34.294 321.739 34.294 321.739 33.644C321.739 32.942 319.841 31.876 318.723 31.85C318.151 31.85 317.319 32.11 316.747 32.292V32.786C317.241 32.89 317.917 33.046 318.385 33.254C318.775 33.436 318.853 33.644 318.853 34.138C318.827 34.892 318.515 36.79 318.203 38.194C315.395 38.532 312.639 38.844 311.859 38.844C311.079 38.844 310.663 38.038 310.247 37.31L309.779 37.414C309.701 38.012 309.675 38.636 309.909 39.156C310.143 39.858 311.261 41.184 311.963 41.184C312.509 41.184 312.769 40.794 313.575 40.586C314.329 40.404 316.305 40.014 317.787 39.754C316.669 43.524 314.615 48.334 308.505 52.728L308.895 53.222C316.851 49.296 319.087 42.614 319.971 39.416C321.583 39.182 323.663 38.896 324.885 38.896C325.093 38.896 325.197 39 325.197 39.208C325.197 40.872 324.183 46.93 322.571 48.958C322.207 49.4 321.947 49.452 321.271 49.27C320.725 49.14 319.425 48.594 318.203 48.074L317.917 48.568C319.425 49.764 320.205 50.232 320.465 51.168C320.621 51.818 320.855 52.078 321.401 52.078C322.493 52.078 323.767 51.168 324.443 49.842C325.951 46.982 326.679 43.42 327.147 40.144C327.277 39.338 328.005 39.39 328.005 38.792C328.005 38.168 326.289 36.764 325.665 36.764C325.171 36.764 324.937 37.388 324.235 37.466L320.335 37.96ZM334.429 40.872C334.429 41.418 334.429 41.964 334.637 42.484C335.027 43.472 336.353 44.876 337.159 44.876C337.991 44.876 338.303 44.434 339.915 44.252C341.865 44.018 348.755 43.628 350.471 43.628C352.135 43.628 353.045 43.68 353.981 43.68C354.917 43.68 355.307 43.368 355.307 42.848C355.307 42.016 354.085 41.47 352.915 41.47C352.265 41.47 351.407 41.626 349.665 41.756C348.365 41.86 339.603 42.432 337.159 42.432C335.989 42.432 335.547 41.652 334.949 40.716L334.429 40.872Z" fill="#E9E9E9"/>
<path d="M105.83 67.61V69.79H101.59V67.61H105.83ZM106.05 65.27H103.9V64.07C104.15 64.03 104.24 63.93 104.26 63.79L103.25 63.69V67.32H101.7L100.96 67.01V70.77H101.06C101.38 70.77 101.59 70.63 101.59 70.57V70.09H105.83V70.73H105.92C106.23 70.73 106.47 70.57 106.47 70.53V67.66C106.67 67.62 106.76 67.56 106.83 67.49L106.12 66.94L105.8 67.32H103.9V65.56H107.14C107.29 65.56 107.38 65.51 107.41 65.41C107.07 65.09 106.54 64.66 106.54 64.66L106.05 65.27ZM106.13 63.06H103.56V62C103.81 61.96 103.91 61.86 103.93 61.72L102.92 61.62V63.06H100.26L99.5 62.74V65.51C99.5 67.28 99.38 69.15 98.37 70.65L98.51 70.76C100.03 69.28 100.14 67.15 100.14 65.5V63.36H107.29C107.43 63.36 107.52 63.31 107.54 63.2C107.2 62.88 106.64 62.43 106.64 62.43L106.13 63.06ZM115.7 62.4V63.63H111.14V62.4H115.7ZM111.14 63.92H115.7V64.28H115.8C116.01 64.28 116.34 64.14 116.35 64.08V62.52C116.54 62.48 116.71 62.4 116.78 62.32L115.97 61.72L115.6 62.11H111.19L110.49 61.8V64.37H110.58C110.84 64.37 111.14 64.22 111.14 64.16V63.92ZM116.12 65.03V65.96H110.75V65.03H116.12ZM116.12 67.21H110.75V66.24H116.12V67.21ZM110.75 68.47V67.5H116.12V68.47H110.75ZM110.75 68.76H116.12V69.16H116.22C116.43 69.16 116.77 69 116.78 68.94V65.16C116.98 65.12 117.13 65.04 117.2 64.96L116.38 64.33L116.02 64.74H110.8L110.09 64.42V69.32H110.2C110.48 69.32 110.75 69.16 110.75 69.09V68.76ZM109.02 70.78C110.46 70.6 111.76 70.12 112.58 69.63C112.86 69.66 113 69.61 113.05 69.52L112.14 69.03C111.52 69.57 110.23 70.28 108.94 70.62L109.02 70.78ZM114.15 69.36C115.13 69.63 116.56 70.28 117.22 70.79C118.05 70.89 117.75 69.43 114.21 69.2L114.15 69.36ZM122.3 62.77C122.87 62.76 123.12 62.74 123.29 63C123.52 63.33 123.73 63.8 123.98 64.27C123.39 64.44 122.63 64.58 122.12 64.58C121.33 64.58 121.04 64.37 120.43 63.88L120.25 64.04C120.8 64.81 121.17 65.16 122.12 65.15C122.77 65.15 123.65 64.95 124.27 64.77C124.76 65.54 125.29 66.29 125.8 66.87C125.87 66.95 125.85 66.96 125.75 66.94C125.3 66.8 124.52 66.58 123.57 66.58C122.04 66.58 120.88 67.39 120.88 68.47C120.88 69.83 122.4 70.36 124.07 70.36C125.32 70.36 125.8 70.17 125.8 69.91C125.8 69.7 125.58 69.58 125.28 69.58C124.93 69.58 124.6 69.69 123.84 69.69C122.28 69.69 121.39 69.16 121.39 68.39C121.39 67.57 122.26 66.95 123.38 66.95C124.4 66.95 125.24 67.28 125.83 67.62C126.11 67.78 126.26 67.93 126.47 67.93C126.69 67.93 126.84 67.55 126.83 67.27C126.82 67.1 126.74 67.01 126.5 66.78C125.86 66.17 125.22 65.42 124.74 64.62C125.59 64.32 126.34 63.91 126.65 63.66C126.79 63.54 126.85 63.37 126.76 63.26C126.65 63.13 126.36 63.11 126.17 63.19C125.88 63.33 125.58 63.69 124.47 64.11C124.19 63.54 124.06 63.05 123.92 62.63C123.87 62.45 123.47 62.33 123.1 62.33C122.88 62.33 122.59 62.41 122.26 62.58L122.3 62.77ZM133.82 62.81C133.95 62.9 133.98 63.04 133.85 63.29C133.49 63.95 131.98 66.43 131.11 67.94C130.59 68.84 130.2 69.46 130.2 69.82C130.2 70.1 130.36 70.28 130.54 70.28C130.73 70.28 130.83 70.16 130.92 69.94C131.06 69.58 131.25 68.99 131.55 68.35C132.03 67.37 132.88 66.45 133.83 66.45C134.41 66.45 134.58 66.8 134.58 67.24C134.58 67.83 134.49 68.44 134.5 68.99C134.5 69.89 135.02 70.32 135.86 70.32C136.87 70.32 138.08 69.66 138.51 67.46L138.29 67.39C137.85 68.57 137.09 69.67 135.98 69.67C135.4 69.67 135.15 69.38 135.15 68.84C135.15 68.38 135.2 67.78 135.19 67.31C135.18 66.51 134.78 66.09 133.96 66.09C133.57 66.09 133.1 66.26 132.58 66.57C132.5 66.62 132.45 66.57 132.5 66.49C132.92 65.76 133.93 64.3 134.35 63.81C134.6 63.5 134.88 63.44 134.88 63.24C134.88 62.93 134.45 62.5 133.99 62.39C133.81 62.33 133.5 62.31 133.3 62.34L133.24 62.54C133.42 62.6 133.69 62.7 133.82 62.81ZM140.586 68.44C141.476 69.07 141.886 69.68 142.206 70.34C142.346 70.64 142.476 70.76 142.686 70.76C142.926 70.76 143.096 70.6 143.096 70.31C143.096 70.09 143.036 69.9 142.856 69.64C142.526 69.16 141.896 68.65 140.696 68.27L140.586 68.44ZM151.976 67.48V63.22H153.266V67.48H151.976ZM153.536 62.52L153.166 62.93H152.026L151.376 62.61V69.16H151.486C151.756 69.16 151.976 69 151.976 68.93V67.78H153.266V68.67H153.366C153.576 68.67 153.876 68.5 153.886 68.44V63.34C154.086 63.3 154.256 63.22 154.326 63.14L153.536 62.52ZM159.086 66.7H157.406V62.76C158.106 62.65 158.746 62.51 159.256 62.37C159.486 62.47 159.676 62.46 159.756 62.39L159.006 61.69C157.976 62.16 155.976 62.68 154.276 62.9L154.316 63.06C155.126 63.04 155.976 62.96 156.766 62.86V66.7H153.896L153.976 66.99H156.766V69.78C156.766 69.94 156.706 70.01 156.496 70.01C156.256 70.01 155.106 69.92 155.106 69.92V70.08C155.616 70.14 155.896 70.22 156.066 70.32C156.206 70.41 156.286 70.58 156.306 70.77C157.276 70.69 157.406 70.31 157.406 69.8V66.99H160.156C160.296 66.99 160.396 66.94 160.426 66.83C160.096 66.52 159.556 66.11 159.556 66.11L159.086 66.7ZM154.606 63.71C154.956 64.35 155.316 65.34 155.286 66.11C155.916 66.75 156.606 65.17 154.746 63.65L154.606 63.71ZM158.176 66.28C158.656 65.68 159.176 64.79 159.546 63.96C159.756 63.97 159.866 63.88 159.916 63.77L158.896 63.44C158.666 64.42 158.316 65.5 158.016 66.2L158.176 66.28ZM168.746 65.42C168.886 65.42 168.986 65.34 168.996 65.19C169.006 64.97 168.866 64.73 168.586 64.49C168.316 64.27 167.916 64.01 167.366 63.81L167.236 63.97C167.736 64.34 168.006 64.63 168.236 64.94C168.456 65.22 168.586 65.42 168.746 65.42ZM169.736 64.56C169.886 64.56 169.966 64.46 169.966 64.32C169.966 64.08 169.806 63.84 169.506 63.59C169.256 63.39 168.856 63.16 168.276 62.98L168.146 63.15C168.636 63.45 168.986 63.79 169.226 64.08C169.456 64.37 169.566 64.56 169.736 64.56ZM161.656 67.02C161.866 67.26 162.256 67.52 162.526 67.52C162.806 67.52 162.956 67.31 163.206 66.98C163.586 66.49 164.296 65.54 164.656 65.12C164.806 64.94 164.926 64.86 165.046 64.86C165.196 64.86 165.356 64.92 165.546 65.11C166.336 65.95 167.136 67.02 167.986 67.87C168.836 68.71 169.696 69.33 170.066 69.33C170.286 69.33 170.386 69.2 170.386 69C170.386 68.77 170.256 68.54 169.986 68.4C167.986 67.32 166.966 65.76 165.886 64.73C165.576 64.42 165.306 64.33 165.046 64.33C164.786 64.33 164.586 64.46 164.376 64.69C163.996 65.11 163.176 66.04 162.716 66.47C162.536 66.63 162.366 66.73 162.236 66.73C162.056 66.73 161.826 66.58 161.586 66.36L161.426 66.5C161.476 66.7 161.546 66.89 161.656 67.02ZM172.156 63.82C172.166 63.97 172.156 64.12 172.196 64.28C172.286 64.62 172.786 65.06 173.156 65.06C173.366 65.06 173.566 64.9 173.766 64.81C174.366 64.53 175.786 64.06 176.906 63.79C177.016 63.76 177.026 63.82 176.956 63.88C175.826 64.77 175.456 66.09 175.456 67.27C175.456 68.4 175.786 69 176.416 69.46C177.096 69.98 178.086 70.02 178.666 70.02C179.116 70.02 179.386 69.93 179.386 69.69C179.386 69.44 179.056 69.27 178.816 69.27C178.406 69.27 177.526 69.33 176.876 68.94C176.476 68.69 176.026 68.24 176.026 67.15C176.026 65.15 177.026 64.22 177.476 63.95C177.976 63.64 178.676 63.58 179.156 63.58C179.526 63.58 179.826 63.61 180.016 63.61C180.236 63.61 180.356 63.49 180.356 63.35C180.356 63.21 180.276 63.1 180.056 63C179.896 62.93 179.606 62.89 179.346 62.89C179.006 62.89 178.226 63.03 177.076 63.3C175.426 63.68 173.496 64.26 172.976 64.26C172.756 64.26 172.486 64.02 172.346 63.76L172.156 63.82ZM185.456 69.88C184.786 69.88 184.426 69.59 184.426 69.24C184.426 68.83 185.056 68.47 186.036 68.47C186.346 68.47 186.656 68.5 186.946 68.55C186.936 69.5 186.666 69.88 185.456 69.88ZM187.316 65.71C187.316 65.24 187.336 64.84 187.356 64.51C188.416 64.36 189.346 64.14 189.706 64.01C189.896 63.94 190.036 63.86 190.036 63.69C190.036 63.48 189.756 63.38 189.516 63.38C189.376 63.38 189.206 63.49 188.936 63.58C188.626 63.68 188.066 63.82 187.416 63.93C187.446 63.69 187.476 63.49 187.506 63.32C187.556 63.06 187.686 62.98 187.686 62.77C187.686 62.51 187.066 62.23 186.636 62.23C186.366 62.23 186.126 62.3 185.936 62.39L185.966 62.6C186.286 62.63 186.486 62.65 186.696 62.71C186.856 62.77 186.896 62.82 186.896 63.02C186.896 63.11 186.886 63.5 186.866 64.01C186.336 64.08 185.776 64.13 185.266 64.13C184.326 64.13 183.986 63.89 183.496 63.48L183.326 63.62C183.836 64.42 184.426 64.66 185.356 64.66C185.836 64.66 186.356 64.62 186.856 64.57C186.846 64.91 186.846 65.26 186.846 65.59V65.99C186.436 66.04 186.016 66.06 185.616 66.06C184.616 66.06 184.196 65.82 184.836 64.99L184.626 64.87C183.556 65.93 184.246 66.58 185.646 66.58C186.046 66.58 186.456 66.56 186.866 66.52C186.886 67.13 186.916 67.67 186.936 68.07C186.736 68.05 186.526 68.04 186.306 68.04C185.056 68.04 184.026 68.48 184.026 69.27C184.026 69.98 184.746 70.43 185.726 70.43C186.836 70.43 187.536 69.94 187.536 69.09C187.536 68.96 187.526 68.83 187.516 68.69C188.276 68.92 188.946 69.31 189.456 69.78C189.636 69.95 189.746 70.05 189.926 70.05C190.086 70.05 190.196 69.95 190.196 69.76C190.196 69.57 190.076 69.39 189.856 69.21C189.566 68.95 188.716 68.39 187.476 68.15C187.426 67.68 187.366 67.12 187.336 66.47C188.316 66.36 189.186 66.17 189.566 66.03C189.746 65.96 189.856 65.86 189.856 65.71C189.856 65.5 189.596 65.4 189.386 65.4C189.266 65.4 189.086 65.51 188.756 65.62C188.356 65.75 187.856 65.86 187.316 65.93V65.71ZM197.206 67.83C196.746 67.83 196.396 67.44 196.396 66.87C196.396 66.36 196.716 65.92 197.216 65.92C197.646 65.92 197.966 66.25 197.966 66.9C197.966 67.59 197.706 67.83 197.206 67.83ZM196.696 62.63C196.996 62.65 197.206 62.66 197.356 62.7C197.516 62.75 197.566 62.81 197.586 63.01C197.606 63.26 197.626 63.6 197.636 63.96C196.456 64.09 194.396 64.4 194.026 64.39C193.686 64.39 193.496 64.07 193.276 63.74L193.086 63.81C193.096 64.01 193.116 64.24 193.186 64.41C193.296 64.69 193.766 65.14 194.096 65.14C194.356 65.14 194.556 64.98 195.006 64.87C195.616 64.72 196.676 64.49 197.656 64.38C197.676 64.83 197.696 65.26 197.706 65.56C197.576 65.53 197.446 65.51 197.296 65.51C196.476 65.51 195.986 66.19 195.986 66.92C195.986 67.94 196.786 68.71 197.766 68.26C197.406 69.24 196.406 69.95 195.186 70.4L195.316 70.65C197.246 70.17 198.626 69.05 198.626 67.22C198.626 66.64 198.496 66.17 198.206 65.87C198.206 65.37 198.196 64.81 198.196 64.33C200.206 64.16 200.966 64.4 201.286 64.4C201.476 64.4 201.566 64.32 201.566 64.14C201.566 63.82 201.046 63.63 200.696 63.63C200.486 63.63 199.846 63.72 198.196 63.9C198.206 63.66 198.206 63.46 198.216 63.33C198.236 63.08 198.386 62.92 198.386 62.69C198.386 62.44 197.766 62.22 197.356 62.22C197.096 62.22 196.856 62.34 196.676 62.43L196.696 62.63ZM205.736 62.72C205.976 62.74 206.346 62.79 206.496 62.87C206.626 62.93 206.656 63.01 206.656 63.13C206.656 63.32 206.436 63.97 206.136 64.74C205.396 64.9 204.496 65.14 204.176 65.14C203.886 65.14 203.816 64.82 203.706 64.55L203.506 64.58C203.456 64.77 203.446 65 203.486 65.16C203.566 65.48 203.936 65.86 204.196 65.86C204.446 65.86 204.586 65.75 205.016 65.58C205.216 65.5 205.556 65.38 205.926 65.26C205.686 65.84 205.416 66.43 205.176 66.91C204.606 67.99 204.166 68.67 203.616 69.38C203.486 69.55 203.456 69.67 203.456 69.84C203.456 70.07 203.616 70.21 203.756 70.21C203.906 70.21 204.016 70.14 204.166 69.9C204.596 69.27 205.096 68.29 205.646 67.18C205.966 66.51 206.306 65.75 206.596 65.08C206.936 64.99 207.266 64.93 207.496 64.93C208.056 64.93 208.226 65.24 208.226 65.97C208.226 67.11 207.856 68.33 207.526 68.84C207.266 69.25 207.036 69.36 206.726 69.36C206.496 69.36 206.046 69.09 205.526 68.76L205.406 68.92C205.966 69.4 206.036 69.52 206.106 69.67C206.236 69.96 206.306 70.1 206.636 70.1C207.146 70.1 207.556 69.85 207.846 69.47C208.436 68.73 208.796 67.33 208.796 66.12C208.796 64.94 208.366 64.53 207.616 64.53C207.386 64.53 207.056 64.57 206.786 64.62C206.976 64.18 207.126 63.8 207.226 63.56C207.336 63.31 207.536 63.2 207.536 62.98C207.536 62.73 206.796 62.38 206.386 62.38C206.116 62.38 205.906 62.44 205.736 62.51V62.72ZM209.456 64.78C210.106 64.9 210.506 65.17 210.786 65.56C211.086 65.98 211.176 66.42 211.196 66.68C211.206 66.94 211.176 67.03 210.966 67.11C210.696 67.21 210.056 67.34 209.686 67.41L209.746 67.65C210.086 67.61 210.716 67.56 210.926 67.6C211.216 67.66 211.196 67.94 211.486 67.94C211.776 67.93 211.906 67.6 211.906 67.2C211.906 66.43 211.656 65.77 211.286 65.37C210.886 64.92 210.386 64.66 209.576 64.54L209.456 64.78ZM217.536 68.91C217.176 68.91 216.926 69.18 216.926 69.52C216.926 69.85 217.176 70.12 217.536 70.12C217.896 70.12 218.146 69.85 218.146 69.52C218.146 69.18 217.896 68.91 217.536 68.91ZM216.776 62.91C217.126 62.77 217.346 62.73 217.716 62.73C218.656 62.73 219.316 63.12 219.316 64.04C219.316 64.69 218.986 65.12 218.226 65.68C217.496 66.23 217.276 66.51 217.276 66.96C217.276 67.26 217.296 67.59 217.346 67.96H217.696L217.746 67.24C217.776 66.73 217.976 66.53 218.736 66.04C219.726 65.41 220.136 64.83 220.136 64.06C220.136 63.08 219.406 62.35 217.886 62.35C216.576 62.35 215.596 63.03 215.466 64.11C215.566 64.32 215.726 64.39 215.906 64.39C216.206 64.39 216.386 64.2 216.516 63.74L216.776 62.91Z" fill="#E9E9E9"/>
<defs>
<linearGradient id="paint0_linear" x1="82" y1="47" x2="16" y2="47" gradientUnits="userSpaceOnUse">
<stop stop-color="#126E82"/>
<stop offset="1" stop-color="#E9E9E9"/>
</linearGradient>
</defs>
</svg>
