<svg width="342" height="73" viewBox="0 0 342 73" fill="none" xmlns="http://www.w3.org/2000/svg">
<mask id="mask0" mask-type="alpha" maskUnits="userSpaceOnUse" x="2" y="5" width="62" height="62">
<rect x="2.61905" y="28.1429" width="6.28571" height="15.7143" rx="3.14286" fill="#C4C4C4"/>
<rect x="57.619" y="29.7143" width="6.28572" height="13.0952" rx="3.14286" fill="#C4C4C4"/>
<rect x="10.4762" y="16.0952" width="6.28572" height="40.3333" rx="3.14286" fill="#C4C4C4"/>
<rect x="18.3333" y="5.61905" width="6.28572" height="61.2857" rx="3.14286" fill="#C4C4C4"/>
<rect x="26.1905" y="14" width="6.28571" height="44.5238" rx="3.14286" fill="#C4C4C4"/>
<rect x="34.0476" y="21.3333" width="6.28571" height="29.8571" rx="3.14285" fill="#C4C4C4"/>
<rect x="49.7619" y="21.3333" width="6.28571" height="29.8571" rx="3.14286" fill="#C4C4C4"/>
<rect x="41.9048" y="27.0952" width="6.28571" height="17.8095" rx="3.14286" fill="#C4C4C4"/>
</mask>
<g mask="url(#mask0)">
<rect y="3" width="66" height="66" fill="url(#paint0_linear)"/>
</g>
<rect x="73" width="2.3" height="72.7" fill="#126E82"/>
<path d="M94.818 35.254C93.622 35.254 92.738 34.266 92.738 32.862C92.738 31.536 93.57 30.418 94.844 30.418C95.962 30.418 96.69 31.328 96.69 32.914C96.69 34.604 96.092 35.254 94.818 35.254ZM93.44 21.734C94.194 21.786 94.792 21.864 95.182 21.994C95.598 22.124 95.728 22.28 95.78 22.774C95.832 23.398 95.91 24.256 95.962 25.192C92.92 25.556 87.694 26.284 86.68 26.258C85.796 26.258 85.328 25.53 84.652 24.62L84.184 24.802C84.184 25.322 84.236 25.972 84.418 26.44C84.704 27.246 85.978 28.468 86.914 28.468C87.668 28.468 88.162 28.026 89.358 27.714C90.84 27.324 93.414 26.752 96.014 26.466C96.092 27.584 96.118 28.65 96.144 29.404C95.832 29.326 95.468 29.274 95.078 29.274C92.946 29.274 91.568 31.042 91.568 33.044C91.568 35.67 93.622 37.75 96.196 36.684C95.208 39.206 92.608 41 89.436 42.17L89.748 42.768C94.948 41.65 98.77 38.764 98.77 33.824C98.77 32.342 98.432 31.094 97.678 30.288C97.652 28.988 97.652 27.558 97.678 26.31C102.748 25.868 104.646 26.518 105.582 26.518C106.154 26.518 106.466 26.336 106.466 25.764C106.466 24.802 105.01 24.256 103.97 24.256C103.45 24.256 102.15 24.516 97.704 24.984C97.704 24.412 97.73 23.944 97.756 23.632C97.782 22.956 98.198 22.54 98.198 21.89C98.198 21.188 96.508 20.59 95.338 20.59C94.61 20.59 93.908 20.954 93.388 21.24L93.44 21.734ZM112.058 32.186C112.214 36.944 114.814 39.232 116.868 40.116C118.09 40.61 118.948 40.142 118.948 39.31C118.948 38.66 118.532 38.582 118.714 37.308C118.818 36.476 119.598 34.292 120.196 32.498L119.546 32.212C118.766 33.85 117.856 35.696 117.024 36.918C116.79 37.256 116.478 37.308 116.088 37.126C115.048 36.606 113.644 34.994 113.644 32.004C113.644 29.17 114.684 27.584 114.684 26.388C114.684 25.27 113.254 24.022 112.214 23.554C111.642 23.32 110.992 23.242 110.342 23.164L110.134 23.528C111.85 24.802 112.162 25.556 112.162 26.986C112.162 28.338 111.98 30.262 112.058 32.186ZM128.36 29.742C129.348 31.692 129.478 33.694 129.686 34.812C129.816 35.436 130.206 35.748 130.674 35.748C131.506 35.748 131.922 35.176 131.922 33.98C131.922 32.16 131.168 29.69 129.66 28.182C128.36 26.908 127.034 25.998 124.486 25.634L124.304 26.206C126.124 26.934 127.528 28.104 128.36 29.742ZM143.442 40.532C141.804 40.532 140.842 39.83 140.842 38.92C140.842 37.906 142.454 36.996 144.898 36.996C145.73 36.996 146.536 37.074 147.29 37.204C147.264 39.622 146.432 40.532 143.442 40.532ZM148.564 30.08C148.564 28.858 148.59 27.766 148.668 26.83C151.372 26.44 153.686 25.894 154.622 25.556C155.194 25.348 155.584 25.114 155.584 24.568C155.584 23.918 154.648 23.632 153.998 23.632C153.686 23.632 153.244 23.918 152.438 24.204C151.684 24.438 150.358 24.75 148.824 25.036C148.902 24.464 148.98 23.996 149.058 23.606C149.214 22.956 149.578 22.696 149.578 22.15C149.578 21.396 147.888 20.642 146.614 20.642C145.834 20.642 145.184 20.902 144.664 21.162L144.716 21.656C145.548 21.76 146.068 21.864 146.614 22.046C147.056 22.202 147.186 22.358 147.186 22.878C147.186 23.138 147.16 24.1 147.134 25.296C145.782 25.478 144.352 25.608 143.026 25.608C140.66 25.608 139.724 24.984 138.45 23.97L138.034 24.308C139.334 26.57 140.946 27.22 143.39 27.22C144.612 27.22 145.86 27.142 147.082 27.012C147.056 27.818 147.056 28.624 147.056 29.378V30.47C146.016 30.574 144.95 30.626 143.91 30.626C141.44 30.626 140.426 30.028 141.96 28L141.44 27.714C138.554 30.366 140.4 32.212 144.014 32.212C145.028 32.212 146.068 32.16 147.108 32.082C147.16 33.486 147.212 34.76 147.264 35.8C146.77 35.748 146.25 35.722 145.73 35.722C142.428 35.722 139.75 36.944 139.75 39.024C139.75 41 141.674 42.196 144.352 42.196C147.29 42.196 149.11 40.896 149.11 38.712C149.11 38.374 149.084 38.036 149.084 37.672C150.93 38.296 152.568 39.31 153.868 40.506C154.388 40.974 154.674 41.234 155.194 41.234C155.662 41.234 156.026 40.922 156.026 40.324C156.026 39.726 155.636 39.18 154.986 38.66C154.206 38.01 152.074 36.632 148.928 36.034C148.824 34.838 148.668 33.512 148.616 31.926C151.138 31.614 153.322 31.146 154.258 30.782C154.778 30.6 155.116 30.288 155.116 29.82C155.116 29.196 154.336 28.91 153.634 28.91C153.374 28.91 152.932 29.196 151.996 29.508C151.008 29.82 149.812 30.08 148.564 30.262V30.08ZM174.956 21.968C175.554 22.02 176.048 22.072 176.49 22.176C176.958 22.306 177.166 22.54 177.192 22.956C177.27 24.022 177.244 26.024 177.244 27.532C175.008 28.026 171.94 28.754 170.12 29.196C170.172 28.104 170.224 27.168 170.276 26.622C170.38 25.582 170.822 25.452 170.822 24.958C170.822 24.23 169.106 23.216 167.936 23.216C167.26 23.216 166.61 23.45 166.064 23.658L166.09 24.178C166.584 24.23 167.208 24.282 167.598 24.464C168.014 24.646 168.144 24.802 168.222 25.556C168.3 26.362 168.3 27.922 168.3 29.664C166.506 30.106 163.932 30.756 163.36 30.756C162.736 30.756 162.086 30.08 161.644 29.404L161.254 29.56C161.254 30.106 161.228 30.652 161.41 31.016C161.826 32.004 162.84 32.94 163.594 32.94C164.296 32.94 165.414 32.238 168.3 31.25C168.326 33.668 168.3 36.112 168.378 37.568C168.508 40.636 170.666 41.442 174.592 41.442C177.244 41.442 179.428 41.26 180.494 41C181.378 40.792 181.716 40.506 181.716 39.96C181.716 39.206 180.884 38.842 179.948 38.842C179.194 38.842 177.088 39.544 173.864 39.544C170.562 39.544 170.042 39.154 169.964 36.554C169.912 35.41 169.964 32.94 170.068 30.704C171.94 30.158 174.748 29.508 177.192 29.066C177.14 30.444 177.01 32.238 176.828 32.992C176.646 33.59 176.36 33.668 175.918 33.668C175.45 33.668 174.15 33.356 172.98 33.018L172.798 33.538C173.838 34.032 175.008 34.526 175.398 35.358C175.658 35.904 175.918 36.034 176.36 36.034C177.426 36.034 178.102 35.228 178.362 34.006C178.648 32.862 178.804 30.6 178.882 28.806C179.272 28.754 179.61 28.702 179.948 28.676C181.898 28.494 182.808 28.728 183.9 28.728C184.68 28.728 185.122 28.546 185.122 27.922C185.122 26.986 184.004 26.518 182.86 26.518C182.34 26.518 180.962 26.752 178.96 27.168C179.012 26.076 179.064 25.14 179.116 24.386C179.168 23.45 179.662 23.242 179.662 22.8C179.662 22.02 178.05 20.928 176.698 20.928C176.152 20.928 175.528 21.188 174.904 21.474L174.956 21.968ZM198.15 22.228C198.462 22.488 198.566 22.852 198.254 23.45C197.344 25.114 193.418 31.588 191.312 35.254C189.934 37.62 188.816 39.31 188.816 40.376C188.816 41.156 189.284 41.78 189.882 41.78C190.532 41.78 190.844 41.338 191.104 40.714C191.494 39.7 191.936 38.14 192.69 36.528C193.86 34.11 195.966 31.744 198.306 31.744C199.814 31.744 200.23 32.654 200.23 33.772C200.23 35.332 199.97 36.866 199.996 38.4C199.996 40.688 201.348 41.884 203.61 41.884C206.548 41.884 209.668 39.934 210.63 34.11L210.11 33.954C208.992 36.918 206.912 39.856 204.052 39.856C202.674 39.856 202.024 39.206 202.024 37.828C202.024 36.554 202.128 35.098 202.102 33.876C202.024 31.822 200.932 30.73 198.8 30.73C197.812 30.73 196.616 31.12 195.29 31.874C195.082 32.004 194.978 31.9 195.108 31.692C196.174 29.846 198.722 26.284 199.866 25.01C200.542 24.204 201.296 23.996 201.296 23.45C201.296 22.566 200.1 21.318 198.644 21.032C198.15 20.902 197.318 20.902 196.746 21.006L196.616 21.5C197.084 21.656 197.786 21.916 198.15 22.228ZM227.662 20.98C228.65 21.786 228.676 22.15 228.208 22.488C226.986 23.346 221.5 25.088 217.106 25.946L217.236 26.596C220.642 26.31 222.774 25.946 224.204 25.66C224.984 26.336 225.114 27.116 225.14 28.416C225.14 28.806 225.14 29.196 225.14 29.586C222.982 29.82 218.64 30.314 216.924 30.314C216.222 30.314 215.754 29.768 215.13 28.962L214.714 29.092C214.74 29.742 214.844 30.236 214.974 30.548C215.286 31.25 216.404 32.446 217.106 32.446C217.782 32.446 218.354 32.108 219.082 31.926C220.044 31.64 223.008 31.172 225.062 30.938C224.646 35.826 222.67 38.998 217.808 41.988L218.172 42.456C223.97 40.09 226.726 36.216 227.168 30.756C228.936 30.6 231.172 30.496 232.368 30.496C233.72 30.496 234.812 30.73 235.28 30.73C235.852 30.73 236.112 30.47 236.112 29.924C236.112 29.092 234.604 28.494 233.408 28.494C232.94 28.494 232.706 28.676 231.068 28.91C230.262 29.04 228.78 29.196 227.246 29.352C227.246 29.118 227.246 28.884 227.246 28.65C227.246 27.454 227.61 27.246 227.61 26.674C227.61 26.336 226.856 25.686 225.998 25.244C227.35 24.906 228.546 24.49 229.95 23.944C230.574 23.71 231.51 23.762 231.51 23.268C231.51 22.748 230.86 22.046 230.366 21.656C229.846 21.266 229.144 20.876 227.974 20.642L227.662 20.98ZM244.453 29.56C244.609 30.054 244.895 30.574 245.207 30.99C245.597 31.484 246.117 31.9 246.637 31.9C247.183 31.9 248.093 31.692 249.419 31.51C249.757 32.004 249.913 32.55 249.913 33.408C249.913 34.396 249.861 36.216 249.783 37.568C247.365 37.776 245.051 38.01 244.297 38.01C243.543 38.01 242.997 37.594 242.503 37.048L242.191 37.178C242.217 37.776 242.269 38.114 242.425 38.426C242.659 38.972 243.751 40.038 244.453 40.038C244.973 40.038 245.519 39.7 246.403 39.466C248.223 38.998 251.863 38.608 253.891 38.686C256.335 38.738 258.051 39.31 258.727 39.31C259.221 39.31 259.533 38.998 259.533 38.53C259.533 37.75 257.713 36.814 256.777 36.814C256.491 36.814 256.231 37.048 255.191 37.126C254.177 37.178 252.877 37.282 251.499 37.412C251.603 36.06 251.759 34.604 251.889 33.772C251.967 33.278 252.201 32.836 252.201 32.472C252.201 32.004 251.681 31.614 251.005 31.328C253.085 31.094 255.113 30.938 255.841 30.86C256.491 30.808 256.725 30.418 256.725 30.028C256.725 29.456 255.269 28.858 254.333 28.858C253.839 28.858 253.917 29.404 251.161 29.846C249.445 30.132 247.781 30.314 246.819 30.314C246.039 30.314 245.389 29.898 244.739 29.352L244.453 29.56ZM275.135 30.236C275.759 31.588 275.733 32.68 276.643 32.68C277.163 32.68 277.657 32.342 277.657 31.666C277.657 30.6 277.007 29.716 276.071 28.988C275.447 28.468 274.849 28.13 274.069 27.766L273.783 28.026C274.277 28.598 274.797 29.534 275.135 30.236ZM283.481 31.25C283.793 30.652 284.287 30.392 284.287 29.924C284.287 29.17 282.909 27.922 281.843 27.792C281.401 27.74 280.907 27.818 280.543 27.844L280.439 28.208C281.375 28.624 281.791 28.962 281.791 29.404C281.791 31.588 277.553 38.426 270.819 41.884L271.105 42.326C277.475 40.116 281.505 35.566 283.481 31.25ZM270.611 31.718C271.313 33.122 271.339 34.214 272.275 34.214C272.899 34.214 273.237 33.772 273.237 33.174C273.237 32.212 272.561 31.224 271.391 30.34C270.949 29.976 270.247 29.456 269.519 29.144L269.207 29.43C269.727 30.054 270.195 30.782 270.611 31.718ZM304.335 26.96C304.595 25.946 304.777 24.906 304.907 24.308C305.115 23.294 305.739 23.294 305.739 22.644C305.739 21.942 303.841 20.876 302.723 20.85C302.151 20.85 301.319 21.11 300.747 21.292V21.786C301.241 21.89 301.917 22.046 302.385 22.254C302.775 22.436 302.853 22.644 302.853 23.138C302.827 23.892 302.515 25.79 302.203 27.194C299.395 27.532 296.639 27.844 295.859 27.844C295.079 27.844 294.663 27.038 294.247 26.31L293.779 26.414C293.701 27.012 293.675 27.636 293.909 28.156C294.143 28.858 295.261 30.184 295.963 30.184C296.509 30.184 296.769 29.794 297.575 29.586C298.329 29.404 300.305 29.014 301.787 28.754C300.669 32.524 298.615 37.334 292.505 41.728L292.895 42.222C300.851 38.296 303.087 31.614 303.971 28.416C305.583 28.182 307.663 27.896 308.885 27.896C309.093 27.896 309.197 28 309.197 28.208C309.197 29.872 308.183 35.93 306.571 37.958C306.207 38.4 305.947 38.452 305.271 38.27C304.725 38.14 303.425 37.594 302.203 37.074L301.917 37.568C303.425 38.764 304.205 39.232 304.465 40.168C304.621 40.818 304.855 41.078 305.401 41.078C306.493 41.078 307.767 40.168 308.443 38.842C309.951 35.982 310.679 32.42 311.147 29.144C311.277 28.338 312.005 28.39 312.005 27.792C312.005 27.168 310.289 25.764 309.665 25.764C309.171 25.764 308.937 26.388 308.235 26.466L304.335 26.96ZM318.429 29.872C318.429 30.418 318.429 30.964 318.637 31.484C319.027 32.472 320.353 33.876 321.159 33.876C321.991 33.876 322.303 33.434 323.915 33.252C325.865 33.018 332.755 32.628 334.471 32.628C336.135 32.628 337.045 32.68 337.981 32.68C338.917 32.68 339.307 32.368 339.307 31.848C339.307 31.016 338.085 30.47 336.915 30.47C336.265 30.47 335.407 30.626 333.665 30.756C332.365 30.86 323.603 31.432 321.159 31.432C319.989 31.432 319.547 30.652 318.949 29.716L318.429 29.872Z" fill="#E9E9E9"/>
<path d="M89.83 56.61V58.79H85.59V56.61H89.83ZM90.05 54.27H87.9V53.07C88.15 53.03 88.24 52.93 88.26 52.79L87.25 52.69V56.32H85.7L84.96 56.01V59.77H85.06C85.38 59.77 85.59 59.63 85.59 59.57V59.09H89.83V59.73H89.92C90.23 59.73 90.47 59.57 90.47 59.53V56.66C90.67 56.62 90.76 56.56 90.83 56.49L90.12 55.94L89.8 56.32H87.9V54.56H91.14C91.29 54.56 91.38 54.51 91.41 54.41C91.07 54.09 90.54 53.66 90.54 53.66L90.05 54.27ZM90.13 52.06H87.56V51C87.81 50.96 87.91 50.86 87.93 50.72L86.92 50.62V52.06H84.26L83.5 51.74V54.51C83.5 56.28 83.38 58.15 82.37 59.65L82.51 59.76C84.03 58.28 84.14 56.15 84.14 54.5V52.36H91.29C91.43 52.36 91.52 52.31 91.54 52.2C91.2 51.88 90.64 51.43 90.64 51.43L90.13 52.06ZM99.7 51.4V52.63H95.14V51.4H99.7ZM95.14 52.92H99.7V53.28H99.8C100.01 53.28 100.34 53.14 100.35 53.08V51.52C100.54 51.48 100.71 51.4 100.78 51.32L99.97 50.72L99.6 51.11H95.19L94.49 50.8V53.37H94.58C94.84 53.37 95.14 53.22 95.14 53.16V52.92ZM100.12 54.03V54.96H94.75V54.03H100.12ZM100.12 56.21H94.75V55.24H100.12V56.21ZM94.75 57.47V56.5H100.12V57.47H94.75ZM94.75 57.76H100.12V58.16H100.22C100.43 58.16 100.77 58 100.78 57.94V54.16C100.98 54.12 101.13 54.04 101.2 53.96L100.38 53.33L100.02 53.74H94.8L94.09 53.42V58.32H94.2C94.48 58.32 94.75 58.16 94.75 58.09V57.76ZM93.02 59.78C94.46 59.6 95.76 59.12 96.58 58.63C96.86 58.66 97 58.61 97.05 58.52L96.14 58.03C95.52 58.57 94.23 59.28 92.94 59.62L93.02 59.78ZM98.15 58.36C99.13 58.63 100.56 59.28 101.22 59.79C102.05 59.89 101.75 58.43 98.21 58.2L98.15 58.36ZM106.3 51.77C106.87 51.76 107.12 51.74 107.29 52C107.52 52.33 107.73 52.8 107.98 53.27C107.39 53.44 106.63 53.58 106.12 53.58C105.33 53.58 105.04 53.37 104.43 52.88L104.25 53.04C104.8 53.81 105.17 54.16 106.12 54.15C106.77 54.15 107.65 53.95 108.27 53.77C108.76 54.54 109.29 55.29 109.8 55.87C109.87 55.95 109.85 55.96 109.75 55.94C109.3 55.8 108.52 55.58 107.57 55.58C106.04 55.58 104.88 56.39 104.88 57.47C104.88 58.83 106.4 59.36 108.07 59.36C109.32 59.36 109.8 59.17 109.8 58.91C109.8 58.7 109.58 58.58 109.28 58.58C108.93 58.58 108.6 58.69 107.84 58.69C106.28 58.69 105.39 58.16 105.39 57.39C105.39 56.57 106.26 55.95 107.38 55.95C108.4 55.95 109.24 56.28 109.83 56.62C110.11 56.78 110.26 56.93 110.47 56.93C110.69 56.93 110.84 56.55 110.83 56.27C110.82 56.1 110.74 56.01 110.5 55.78C109.86 55.17 109.22 54.42 108.74 53.62C109.59 53.32 110.34 52.91 110.65 52.66C110.79 52.54 110.85 52.37 110.76 52.26C110.65 52.13 110.36 52.11 110.17 52.19C109.88 52.33 109.58 52.69 108.47 53.11C108.19 52.54 108.06 52.05 107.92 51.63C107.87 51.45 107.47 51.33 107.1 51.33C106.88 51.33 106.59 51.41 106.26 51.58L106.3 51.77ZM117.82 51.81C117.95 51.9 117.98 52.04 117.85 52.29C117.49 52.95 115.98 55.43 115.11 56.94C114.59 57.84 114.2 58.46 114.2 58.82C114.2 59.1 114.36 59.28 114.54 59.28C114.73 59.28 114.83 59.16 114.92 58.94C115.06 58.58 115.25 57.99 115.55 57.35C116.03 56.37 116.88 55.45 117.83 55.45C118.41 55.45 118.58 55.8 118.58 56.24C118.58 56.83 118.49 57.44 118.5 57.99C118.5 58.89 119.02 59.32 119.86 59.32C120.87 59.32 122.08 58.66 122.51 56.46L122.29 56.39C121.85 57.57 121.09 58.67 119.98 58.67C119.4 58.67 119.15 58.38 119.15 57.84C119.15 57.38 119.2 56.78 119.19 56.31C119.18 55.51 118.78 55.09 117.96 55.09C117.57 55.09 117.1 55.26 116.58 55.57C116.5 55.62 116.45 55.57 116.5 55.49C116.92 54.76 117.93 53.3 118.35 52.81C118.6 52.5 118.88 52.44 118.88 52.24C118.88 51.93 118.45 51.5 117.99 51.39C117.81 51.33 117.5 51.31 117.3 51.34L117.24 51.54C117.42 51.6 117.69 51.7 117.82 51.81ZM124.586 57.44C125.476 58.07 125.886 58.68 126.206 59.34C126.346 59.64 126.476 59.76 126.686 59.76C126.926 59.76 127.096 59.6 127.096 59.31C127.096 59.09 127.036 58.9 126.856 58.64C126.526 58.16 125.896 57.65 124.696 57.27L124.586 57.44ZM135.976 56.48V52.22H137.266V56.48H135.976ZM137.536 51.52L137.166 51.93H136.026L135.376 51.61V58.16H135.486C135.756 58.16 135.976 58 135.976 57.93V56.78H137.266V57.67H137.366C137.576 57.67 137.876 57.5 137.886 57.44V52.34C138.086 52.3 138.256 52.22 138.326 52.14L137.536 51.52ZM143.086 55.7H141.406V51.76C142.106 51.65 142.746 51.51 143.256 51.37C143.486 51.47 143.676 51.46 143.756 51.39L143.006 50.69C141.976 51.16 139.976 51.68 138.276 51.9L138.316 52.06C139.126 52.04 139.976 51.96 140.766 51.86V55.7H137.896L137.976 55.99H140.766V58.78C140.766 58.94 140.706 59.01 140.496 59.01C140.256 59.01 139.106 58.92 139.106 58.92V59.08C139.616 59.14 139.896 59.22 140.066 59.32C140.206 59.41 140.286 59.58 140.306 59.77C141.276 59.69 141.406 59.31 141.406 58.8V55.99H144.156C144.296 55.99 144.396 55.94 144.426 55.83C144.096 55.52 143.556 55.11 143.556 55.11L143.086 55.7ZM138.606 52.71C138.956 53.35 139.316 54.34 139.286 55.11C139.916 55.75 140.606 54.17 138.746 52.65L138.606 52.71ZM142.176 55.28C142.656 54.68 143.176 53.79 143.546 52.96C143.756 52.97 143.866 52.88 143.916 52.77L142.896 52.44C142.666 53.42 142.316 54.5 142.016 55.2L142.176 55.28ZM152.746 54.42C152.886 54.42 152.986 54.34 152.996 54.19C153.006 53.97 152.866 53.73 152.586 53.49C152.316 53.27 151.916 53.01 151.366 52.81L151.236 52.97C151.736 53.34 152.006 53.63 152.236 53.94C152.456 54.22 152.586 54.42 152.746 54.42ZM153.736 53.56C153.886 53.56 153.966 53.46 153.966 53.32C153.966 53.08 153.806 52.84 153.506 52.59C153.256 52.39 152.856 52.16 152.276 51.98L152.146 52.15C152.636 52.45 152.986 52.79 153.226 53.08C153.456 53.37 153.566 53.56 153.736 53.56ZM145.656 56.02C145.866 56.26 146.256 56.52 146.526 56.52C146.806 56.52 146.956 56.31 147.206 55.98C147.586 55.49 148.296 54.54 148.656 54.12C148.806 53.94 148.926 53.86 149.046 53.86C149.196 53.86 149.356 53.92 149.546 54.11C150.336 54.95 151.136 56.02 151.986 56.87C152.836 57.71 153.696 58.33 154.066 58.33C154.286 58.33 154.386 58.2 154.386 58C154.386 57.77 154.256 57.54 153.986 57.4C151.986 56.32 150.966 54.76 149.886 53.73C149.576 53.42 149.306 53.33 149.046 53.33C148.786 53.33 148.586 53.46 148.376 53.69C147.996 54.11 147.176 55.04 146.716 55.47C146.536 55.63 146.366 55.73 146.236 55.73C146.056 55.73 145.826 55.58 145.586 55.36L145.426 55.5C145.476 55.7 145.546 55.89 145.656 56.02ZM156.156 52.82C156.166 52.97 156.156 53.12 156.196 53.28C156.286 53.62 156.786 54.06 157.156 54.06C157.366 54.06 157.566 53.9 157.766 53.81C158.366 53.53 159.786 53.06 160.906 52.79C161.016 52.76 161.026 52.82 160.956 52.88C159.826 53.77 159.456 55.09 159.456 56.27C159.456 57.4 159.786 58 160.416 58.46C161.096 58.98 162.086 59.02 162.666 59.02C163.116 59.02 163.386 58.93 163.386 58.69C163.386 58.44 163.056 58.27 162.816 58.27C162.406 58.27 161.526 58.33 160.876 57.94C160.476 57.69 160.026 57.24 160.026 56.15C160.026 54.15 161.026 53.22 161.476 52.95C161.976 52.64 162.676 52.58 163.156 52.58C163.526 52.58 163.826 52.61 164.016 52.61C164.236 52.61 164.356 52.49 164.356 52.35C164.356 52.21 164.276 52.1 164.056 52C163.896 51.93 163.606 51.89 163.346 51.89C163.006 51.89 162.226 52.03 161.076 52.3C159.426 52.68 157.496 53.26 156.976 53.26C156.756 53.26 156.486 53.02 156.346 52.76L156.156 52.82ZM169.456 58.88C168.786 58.88 168.426 58.59 168.426 58.24C168.426 57.83 169.056 57.47 170.036 57.47C170.346 57.47 170.656 57.5 170.946 57.55C170.936 58.5 170.666 58.88 169.456 58.88ZM171.316 54.71C171.316 54.24 171.336 53.84 171.356 53.51C172.416 53.36 173.346 53.14 173.706 53.01C173.896 52.94 174.036 52.86 174.036 52.69C174.036 52.48 173.756 52.38 173.516 52.38C173.376 52.38 173.206 52.49 172.936 52.58C172.626 52.68 172.066 52.82 171.416 52.93C171.446 52.69 171.476 52.49 171.506 52.32C171.556 52.06 171.686 51.98 171.686 51.77C171.686 51.51 171.066 51.23 170.636 51.23C170.366 51.23 170.126 51.3 169.936 51.39L169.966 51.6C170.286 51.63 170.486 51.65 170.696 51.71C170.856 51.77 170.896 51.82 170.896 52.02C170.896 52.11 170.886 52.5 170.866 53.01C170.336 53.08 169.776 53.13 169.266 53.13C168.326 53.13 167.986 52.89 167.496 52.48L167.326 52.62C167.836 53.42 168.426 53.66 169.356 53.66C169.836 53.66 170.356 53.62 170.856 53.57C170.846 53.91 170.846 54.26 170.846 54.59V54.99C170.436 55.04 170.016 55.06 169.616 55.06C168.616 55.06 168.196 54.82 168.836 53.99L168.626 53.87C167.556 54.93 168.246 55.58 169.646 55.58C170.046 55.58 170.456 55.56 170.866 55.52C170.886 56.13 170.916 56.67 170.936 57.07C170.736 57.05 170.526 57.04 170.306 57.04C169.056 57.04 168.026 57.48 168.026 58.27C168.026 58.98 168.746 59.43 169.726 59.43C170.836 59.43 171.536 58.94 171.536 58.09C171.536 57.96 171.526 57.83 171.516 57.69C172.276 57.92 172.946 58.31 173.456 58.78C173.636 58.95 173.746 59.05 173.926 59.05C174.086 59.05 174.196 58.95 174.196 58.76C174.196 58.57 174.076 58.39 173.856 58.21C173.566 57.95 172.716 57.39 171.476 57.15C171.426 56.68 171.366 56.12 171.336 55.47C172.316 55.36 173.186 55.17 173.566 55.03C173.746 54.96 173.856 54.86 173.856 54.71C173.856 54.5 173.596 54.4 173.386 54.4C173.266 54.4 173.086 54.51 172.756 54.62C172.356 54.75 171.856 54.86 171.316 54.93V54.71ZM181.206 56.83C180.746 56.83 180.396 56.44 180.396 55.87C180.396 55.36 180.716 54.92 181.216 54.92C181.646 54.92 181.966 55.25 181.966 55.9C181.966 56.59 181.706 56.83 181.206 56.83ZM180.696 51.63C180.996 51.65 181.206 51.66 181.356 51.7C181.516 51.75 181.566 51.81 181.586 52.01C181.606 52.26 181.626 52.6 181.636 52.96C180.456 53.09 178.396 53.4 178.026 53.39C177.686 53.39 177.496 53.07 177.276 52.74L177.086 52.81C177.096 53.01 177.116 53.24 177.186 53.41C177.296 53.69 177.766 54.14 178.096 54.14C178.356 54.14 178.556 53.98 179.006 53.87C179.616 53.72 180.676 53.49 181.656 53.38C181.676 53.83 181.696 54.26 181.706 54.56C181.576 54.53 181.446 54.51 181.296 54.51C180.476 54.51 179.986 55.19 179.986 55.92C179.986 56.94 180.786 57.71 181.766 57.26C181.406 58.24 180.406 58.95 179.186 59.4L179.316 59.65C181.246 59.17 182.626 58.05 182.626 56.22C182.626 55.64 182.496 55.17 182.206 54.87C182.206 54.37 182.196 53.81 182.196 53.33C184.206 53.16 184.966 53.4 185.286 53.4C185.476 53.4 185.566 53.32 185.566 53.14C185.566 52.82 185.046 52.63 184.696 52.63C184.486 52.63 183.846 52.72 182.196 52.9C182.206 52.66 182.206 52.46 182.216 52.33C182.236 52.08 182.386 51.92 182.386 51.69C182.386 51.44 181.766 51.22 181.356 51.22C181.096 51.22 180.856 51.34 180.676 51.43L180.696 51.63ZM189.736 51.72C189.976 51.74 190.346 51.79 190.496 51.87C190.626 51.93 190.656 52.01 190.656 52.13C190.656 52.32 190.436 52.97 190.136 53.74C189.396 53.9 188.496 54.14 188.176 54.14C187.886 54.14 187.816 53.82 187.706 53.55L187.506 53.58C187.456 53.77 187.446 54 187.486 54.16C187.566 54.48 187.936 54.86 188.196 54.86C188.446 54.86 188.586 54.75 189.016 54.58C189.216 54.5 189.556 54.38 189.926 54.26C189.686 54.84 189.416 55.43 189.176 55.91C188.606 56.99 188.166 57.67 187.616 58.38C187.486 58.55 187.456 58.67 187.456 58.84C187.456 59.07 187.616 59.21 187.756 59.21C187.906 59.21 188.016 59.14 188.166 58.9C188.596 58.27 189.096 57.29 189.646 56.18C189.966 55.51 190.306 54.75 190.596 54.08C190.936 53.99 191.266 53.93 191.496 53.93C192.056 53.93 192.226 54.24 192.226 54.97C192.226 56.11 191.856 57.33 191.526 57.84C191.266 58.25 191.036 58.36 190.726 58.36C190.496 58.36 190.046 58.09 189.526 57.76L189.406 57.92C189.966 58.4 190.036 58.52 190.106 58.67C190.236 58.96 190.306 59.1 190.636 59.1C191.146 59.1 191.556 58.85 191.846 58.47C192.436 57.73 192.796 56.33 192.796 55.12C192.796 53.94 192.366 53.53 191.616 53.53C191.386 53.53 191.056 53.57 190.786 53.62C190.976 53.18 191.126 52.8 191.226 52.56C191.336 52.31 191.536 52.2 191.536 51.98C191.536 51.73 190.796 51.38 190.386 51.38C190.116 51.38 189.906 51.44 189.736 51.51V51.72ZM193.456 53.78C194.106 53.9 194.506 54.17 194.786 54.56C195.086 54.98 195.176 55.42 195.196 55.68C195.206 55.94 195.176 56.03 194.966 56.11C194.696 56.21 194.056 56.34 193.686 56.41L193.746 56.65C194.086 56.61 194.716 56.56 194.926 56.6C195.216 56.66 195.196 56.94 195.486 56.94C195.776 56.93 195.906 56.6 195.906 56.2C195.906 55.43 195.656 54.77 195.286 54.37C194.886 53.92 194.386 53.66 193.576 53.54L193.456 53.78ZM201.536 57.91C201.176 57.91 200.926 58.18 200.926 58.52C200.926 58.85 201.176 59.12 201.536 59.12C201.896 59.12 202.146 58.85 202.146 58.52C202.146 58.18 201.896 57.91 201.536 57.91ZM200.776 51.91C201.126 51.77 201.346 51.73 201.716 51.73C202.656 51.73 203.316 52.12 203.316 53.04C203.316 53.69 202.986 54.12 202.226 54.68C201.496 55.23 201.276 55.51 201.276 55.96C201.276 56.26 201.296 56.59 201.346 56.96H201.696L201.746 56.24C201.776 55.73 201.976 55.53 202.736 55.04C203.726 54.41 204.136 53.83 204.136 53.06C204.136 52.08 203.406 51.35 201.886 51.35C200.576 51.35 199.596 52.03 199.466 53.11C199.566 53.32 199.726 53.39 199.906 53.39C200.206 53.39 200.386 53.2 200.516 52.74L200.776 51.91Z" fill="#E9E9E9"/>
<defs>
<linearGradient id="paint0_linear" x1="66" y1="36" x2="0" y2="36" gradientUnits="userSpaceOnUse">
<stop stop-color="#126E82"/>
<stop offset="1" stop-color="#E9E9E9"/>
</linearGradient>
</defs>
</svg>
