<svg width="425" height="621" viewBox="0 0 425 621" fill="none" xmlns="http://www.w3.org/2000/svg">
<mask id="mask0" style="mask-type:alpha" maskUnits="userSpaceOnUse" x="0" y="0" width="425" height="621">
<rect width="425" height="621" fill="#C4C4C4"/>
</mask>
<g mask="url(#mask0)">
<path d="M303.245 550.3C304.272 548.639 305.482 547.098 306.851 545.705C307.415 545.119 308.011 544.568 308.625 544.031C312.359 540.708 316.91 538.439 321.811 537.458C326.713 536.476 331.787 536.819 336.512 538.449C341.238 540.079 345.444 542.938 348.698 546.732C351.952 550.527 354.136 555.119 355.027 560.038C359.151 544.786 348.415 529.762 337.621 518.223C326.821 506.687 314.478 494.031 314.54 478.224C314.57 469.429 318.873 461.582 325.369 455.764C325.569 455.588 325.77 455.412 325.974 455.242C333.826 448.511 343.928 444.991 354.262 445.384C373.461 446.412 390.225 459.315 401.867 474.621C420.606 499.248 428.817 533.818 415.698 561.852C404.159 586.509 379.55 601.15 354.433 612.921C350.926 614.565 347.426 616.16 343.933 617.704C343.91 617.71 343.884 617.727 343.861 617.733C343.693 617.807 343.525 617.881 343.367 617.957C342.646 618.275 341.925 618.593 341.21 618.907L341.541 619.124L342.574 619.792C342.216 619.576 341.862 619.365 341.504 619.148C341.397 619.083 341.285 619.021 341.179 618.955C328.843 611.553 316.335 603.723 307.813 592.167C298.975 580.17 295.421 562.984 303.245 550.3Z" fill="#F1F1F1"/>
<path d="M385.548 522.436C388.279 528.65 390.09 535.23 390.923 541.966C391.579 547.973 391.332 554.045 390.192 559.979C387.743 572.173 382.4 583.601 374.615 593.301C368.741 600.665 361.96 607.258 354.433 612.921C350.926 614.565 347.426 616.16 343.933 617.704C343.91 617.71 343.884 617.727 343.861 617.733C343.693 617.807 343.525 617.881 343.367 617.957C342.646 618.275 341.925 618.593 341.211 618.907L341.542 619.124L342.574 619.793C342.216 619.576 341.862 619.365 341.504 619.148C341.398 619.083 341.285 619.021 341.179 618.955C343.893 609.459 344.293 599.451 342.343 589.769C340.393 580.087 336.15 571.013 329.971 563.309C323.759 555.701 315.837 549.669 306.851 545.705C307.415 545.119 308.011 544.568 308.625 544.031C312.086 545.62 315.4 547.513 318.528 549.686C329.716 557.418 338.116 568.547 342.487 581.426C346.389 593.109 346.876 605.663 343.892 617.614C344.511 617.209 345.132 616.794 345.737 616.381C357.229 608.631 367.82 599.323 375.798 587.91C382.678 578.264 387.081 567.074 388.619 555.325C390.148 542.491 386.937 529.871 381.207 518.42C374.88 506.169 366.908 494.841 357.511 484.75C348.073 474.38 337.402 465.205 325.735 457.428C325.472 457.25 325.288 456.979 325.219 456.669C325.151 456.359 325.205 456.035 325.369 455.764C325.494 455.517 325.711 455.329 325.974 455.242C326.108 455.208 326.247 455.204 326.382 455.232C326.517 455.259 326.644 455.316 326.754 455.4C328.194 456.361 329.622 457.33 331.033 458.329C342.782 466.648 353.452 476.395 362.798 487.345C371.829 497.9 380.048 509.626 385.548 522.436Z" fill="white"/>
<path d="M134.042 39.2105C143.946 39.2105 151.976 31.1812 151.976 21.2765C151.976 11.3718 143.946 3.34241 134.042 3.34241C124.137 3.34241 116.108 11.3718 116.108 21.2765C116.108 31.1812 124.137 39.2105 134.042 39.2105Z" fill="#F1F1F1"/>
<path d="M357.042 279.211C363.08 279.211 367.976 274.315 367.976 268.276C367.976 262.238 363.08 257.342 357.042 257.342C351.003 257.342 346.108 262.238 346.108 268.276C346.108 274.315 351.003 279.211 357.042 279.211Z" fill="#F1F1F1"/>
<path d="M37.0417 309.211C43.0804 309.211 47.9758 304.315 47.9758 298.276C47.9758 292.238 43.0804 287.342 37.0417 287.342C31.003 287.342 26.1077 292.238 26.1077 298.276C26.1077 304.315 31.003 309.211 37.0417 309.211Z" fill="#F1F1F1"/>
<path d="M43.2153 621H424.215C424.481 621 424.735 620.895 424.922 620.707C425.11 620.52 425.215 620.265 425.215 620C425.215 619.735 425.11 619.48 424.922 619.293C424.735 619.105 424.481 619 424.215 619H43.2153C42.9501 619 42.6958 619.105 42.5082 619.293C42.3207 619.48 42.2153 619.735 42.2153 620C42.2153 620.265 42.3207 620.52 42.5082 620.707C42.6958 620.895 42.9501 621 43.2153 621Z" fill="#CBCBCB"/>
<path d="M382.17 96.635C382.67 93.0831 381.85 89.4711 379.865 86.4834C377.88 83.4957 374.868 81.3399 371.4 80.4245C367.932 79.5091 364.248 79.8977 361.047 81.5167C357.847 83.1357 355.351 85.8726 354.033 89.2088L323.116 124.653L332.188 149.99L363.281 108.575C365.309 109.225 367.456 109.422 369.57 109.152C371.683 108.883 373.712 108.153 375.513 107.015C377.313 105.876 378.843 104.357 379.993 102.564C381.143 100.77 381.886 98.7465 382.17 96.635Z" fill="#FFB7B7"/>
<path d="M254.013 234.549L356.642 125.02L342.799 103.012L214.076 211.876L254.013 234.549Z" fill="#3F3D56"/>
<path d="M231.108 168C250.99 168 267.108 151.882 267.108 132C267.108 112.118 250.99 96 231.108 96C211.225 96 195.108 112.118 195.108 132C195.108 151.882 211.225 168 231.108 168Z" fill="#2F2E41"/>
<path d="M234.001 111.663C241.748 103.808 251.122 97.7457 261.465 93.904C268.103 91.4446 275.329 89.9251 282.27 91.3218C289.21 92.7185 295.774 97.5199 297.71 104.33C299.293 109.898 297.658 115.893 295.201 121.135C292.744 126.377 289.464 131.238 287.477 136.675C285.449 142.223 284.839 148.19 285.703 154.033C286.566 159.876 288.875 165.412 292.42 170.136C295.966 174.861 300.635 178.625 306.004 181.088C311.373 183.55 317.272 184.633 323.166 184.237C316.346 185.152 310.06 188.356 303.395 190.062C296.729 191.768 288.862 191.652 283.909 186.877C278.668 181.824 278.563 173.61 278.816 166.334C279.193 155.519 279.57 144.704 279.946 133.889C280.138 128.374 280.302 122.682 278.313 117.534C276.324 112.386 271.597 107.878 266.079 107.925C261.896 107.961 258.194 110.494 254.84 112.993C251.486 115.492 247.936 118.158 243.769 118.529C239.603 118.901 234.846 115.818 235.158 111.647L234.001 111.663Z" fill="#2F2E41"/>
<path d="M94.3771 373.723C90.921 374.683 87.2328 374.342 84.0114 372.764C80.7899 371.187 78.2591 368.482 76.8983 365.164C75.5376 361.845 75.4416 358.142 76.6285 354.757C77.8154 351.372 80.2027 348.54 83.338 346.798L114.439 311.514L140.743 317.197L103.746 353.436C104.656 355.362 105.132 357.465 105.141 359.595C105.149 361.726 104.691 363.832 103.798 365.766C102.905 367.701 101.598 369.416 99.9706 370.79C98.3429 372.165 96.4336 373.166 94.3772 373.723H94.3771Z" fill="#FFB7B7"/>
<path d="M196.698 247.405L119.183 344.705L95.555 333.857L186.665 192.012L196.698 247.405Z" fill="#3F3D56"/>
<path d="M134.848 541.211L116.374 540.921L118.596 603.887H134.845L134.848 541.211Z" fill="#FFB7B7"/>
<path d="M138.99 598.582L106.989 598.581H106.988C101.579 598.581 96.392 600.73 92.5675 604.554C88.743 608.378 86.5943 613.565 86.5939 618.974V619.637L138.989 619.639L138.99 598.582Z" fill="#2F2E41"/>
<path d="M257.165 524.511L236.984 537.467L277.352 586.032L291.026 577.253L257.165 524.511Z" fill="#FFB7B7"/>
<path d="M291.648 570.549L264.718 587.838L264.717 587.838C260.166 590.761 256.962 595.371 255.81 600.656C254.658 605.94 255.653 611.466 258.575 616.017L258.933 616.575L303.023 588.268L291.648 570.549Z" fill="#2F2E41"/>
<path d="M264.355 332.24C264.355 332.24 219.515 183.313 205.105 181.3C190.695 179.288 167.477 219.513 167.477 219.513C137.374 257.921 106.333 382.334 106.333 382.334C106.333 382.334 158.079 385.572 195.906 405.697C233.733 425.823 278.374 404.679 278.374 404.679L264.355 332.24Z" fill="#3F3D56"/>
<path opacity="0.1" d="M264.355 332.24C264.355 332.24 219.515 183.313 205.105 181.3C190.695 179.288 173.374 219.921 173.374 219.921C158.374 281.921 106.333 382.334 106.333 382.334C106.333 382.334 158.079 385.572 195.906 405.698C233.733 425.823 278.374 404.679 278.374 404.679L264.355 332.24Z" fill="black"/>
<path d="M227.567 287.682V362.517L236.374 470.921L280.374 552.921L259.374 567.921L199.374 489.921L175.643 412.472L138.374 583.921L110.374 581.921L129.82 344.21L166.721 277.3L227.567 287.682Z" fill="#2F2E41"/>
<path d="M182.358 215.3C168.358 229.3 181.358 244.3 181.358 244.3L165.358 280.3L228.358 297.3L250.374 198.921L235.374 182.921C205.374 181.921 205.358 181.3 205.358 181.3C200.101 186.444 182.358 215.3 182.358 215.3Z" fill="#126E82"/>
<path d="M252.911 188.73C250.05 186.617 246.798 185.094 243.343 184.248C239.889 183.401 236.301 183.249 232.788 183.798C229.274 184.348 225.904 185.59 222.874 187.452C219.844 189.313 217.213 191.757 215.134 194.643C199.296 216.695 184.651 252.304 204.829 296.714C237.228 368.024 265.422 404.529 276.884 404.525C277.384 404.529 277.882 404.451 278.357 404.294C285.412 401.9 295.613 389.962 297.46 379.441C298.121 375.675 297.964 370.43 293.46 366.829C280.525 356.482 257.302 324.267 250.058 281.865C246.055 258.435 253.819 237.093 261.036 223.315C264.085 217.614 264.977 211.005 263.548 204.7C262.12 198.395 258.467 192.816 253.259 188.986V188.986L252.911 188.73Z" fill="#3F3D56"/>
<path d="M232.959 164.463C245.801 157.443 250.521 141.342 243.501 128.5C236.481 115.658 220.379 110.938 207.537 117.958C194.695 124.978 189.975 141.08 196.995 153.922C204.016 166.764 220.117 171.483 232.959 164.463Z" fill="#FFB7B7"/>
<path d="M182.98 139.207H221.245L221.638 133.713L223.6 139.207H229.492L230.269 128.319L234.158 139.207H245.559V138.668C245.55 131.087 242.535 123.82 237.175 118.459C231.815 113.099 224.547 110.084 216.967 110.075H211.572C203.991 110.084 196.724 113.099 191.364 118.459C186.003 123.82 182.988 131.087 182.98 138.668V139.207Z" fill="#2F2E41"/>
<path d="M239.778 158.954L256.108 153.656V114H225.263L226.027 114.762C236.652 125.373 248.468 163.019 239.778 158.954Z" fill="#2F2E41"/>
</g>
</svg>
