<svg width="342" height="73" viewBox="0 0 342 73" fill="none" xmlns="http://www.w3.org/2000/svg">
<mask id="mask0" mask-type="alpha" maskUnits="userSpaceOnUse" x="2" y="5" width="62" height="62">
<rect x="2.61905" y="28.1429" width="6.28571" height="15.7143" rx="3.14286" fill="#C4C4C4"/>
<rect x="57.619" y="29.7143" width="6.28572" height="13.0952" rx="3.14286" fill="#C4C4C4"/>
<rect x="10.4762" y="16.0952" width="6.28572" height="40.3333" rx="3.14286" fill="#C4C4C4"/>
<rect x="18.3333" y="5.61905" width="6.28572" height="61.2857" rx="3.14286" fill="#C4C4C4"/>
<rect x="26.1905" y="14" width="6.28571" height="44.5238" rx="3.14286" fill="#C4C4C4"/>
<rect x="34.0476" y="21.3333" width="6.28571" height="29.8571" rx="3.14285" fill="#C4C4C4"/>
<rect x="49.7619" y="21.3333" width="6.28571" height="29.8571" rx="3.14286" fill="#C4C4C4"/>
<rect x="41.9048" y="27.0952" width="6.28571" height="17.8095" rx="3.14286" fill="#C4C4C4"/>
</mask>
<g mask="url(#mask0)">
<rect y="3" width="66" height="66" fill="url(#paint0_linear)"/>
</g>
<rect x="73" width="2.3" height="72.7" fill="#126E82"/>
<path opacity="0.5" d="M95.026 35.358C93.83 35.358 92.92 34.344 92.92 32.862C92.92 31.536 93.752 30.392 95.052 30.392C96.17 30.392 97.002 31.25 97.002 32.94C97.002 34.734 96.326 35.358 95.026 35.358ZM93.7 21.838C94.48 21.89 95.026 21.916 95.416 22.02C95.832 22.15 95.962 22.306 96.014 22.826C96.066 23.476 96.118 24.36 96.144 25.296C93.076 25.634 87.72 26.44 86.758 26.414C85.874 26.414 85.38 25.582 84.808 24.724L84.314 24.906C84.34 25.426 84.392 26.024 84.574 26.466C84.86 27.194 86.082 28.364 86.94 28.364C87.616 28.364 88.136 27.948 89.306 27.662C90.892 27.272 93.648 26.674 96.196 26.388C96.248 27.558 96.3 28.676 96.326 29.456C95.988 29.378 95.65 29.326 95.26 29.326C93.128 29.326 91.854 31.094 91.854 32.992C91.854 35.644 93.934 37.646 96.482 36.476C95.546 39.024 92.946 40.87 89.774 42.04L90.112 42.69C95.13 41.442 98.718 38.53 98.718 33.772C98.718 32.264 98.38 31.042 97.626 30.262C97.626 28.962 97.6 27.506 97.6 26.258C102.826 25.816 104.802 26.44 105.634 26.44C106.128 26.44 106.362 26.232 106.362 25.764C106.362 24.932 105.01 24.438 104.1 24.438C103.554 24.438 101.89 24.672 97.6 25.14C97.626 24.516 97.626 23.996 97.652 23.658C97.704 23.008 98.094 22.592 98.094 21.994C98.094 21.344 96.482 20.772 95.416 20.772C94.74 20.772 94.116 21.084 93.648 21.318L93.7 21.838ZM112.214 31.874C112.292 36.84 114.996 39.102 117.024 39.986C118.09 40.428 118.792 40.012 118.792 39.31C118.792 38.764 118.376 38.634 118.61 37.464C118.766 36.658 119.598 34.474 120.196 32.758L119.52 32.446C118.766 34.058 117.882 35.982 117.076 37.204C116.842 37.542 116.556 37.594 116.166 37.386C115.074 36.814 113.566 35.124 113.566 31.822C113.566 29.144 114.45 27.506 114.45 26.362C114.45 25.296 113.098 24.126 112.162 23.684C111.668 23.476 111.148 23.372 110.524 23.268L110.29 23.684C112.136 24.984 112.318 25.634 112.318 27.038C112.318 28.208 112.162 30.002 112.214 31.874ZM128.464 29.534C129.556 31.38 129.764 33.59 129.946 34.734C130.05 35.332 130.362 35.644 130.778 35.644C131.48 35.644 131.818 35.202 131.818 34.188C131.818 32.446 131.038 29.872 129.556 28.338C128.386 27.116 127.112 26.206 124.668 25.764L124.434 26.388C126.15 27.038 127.554 28 128.464 29.534ZM143.676 40.688C141.934 40.688 140.998 39.934 140.998 39.024C140.998 37.958 142.636 37.022 145.184 37.022C145.99 37.022 146.796 37.1 147.55 37.23C147.524 39.7 146.822 40.688 143.676 40.688ZM148.512 29.846C148.512 28.624 148.564 27.584 148.616 26.726C151.372 26.336 153.79 25.764 154.726 25.426C155.22 25.244 155.584 25.036 155.584 24.594C155.584 24.048 154.856 23.788 154.232 23.788C153.868 23.788 153.426 24.074 152.724 24.308C151.918 24.568 150.462 24.932 148.772 25.218C148.85 24.594 148.928 24.074 149.006 23.632C149.136 22.956 149.474 22.748 149.474 22.202C149.474 21.526 147.862 20.798 146.744 20.798C146.042 20.798 145.418 20.98 144.924 21.214L145.002 21.76C145.834 21.838 146.354 21.89 146.9 22.046C147.316 22.202 147.42 22.332 147.42 22.852C147.42 23.086 147.394 24.1 147.342 25.426C145.964 25.608 144.508 25.738 143.182 25.738C140.738 25.738 139.854 25.114 138.58 24.048L138.138 24.412C139.464 26.492 140.998 27.116 143.416 27.116C144.664 27.116 146.016 27.012 147.316 26.882C147.29 27.766 147.29 28.676 147.29 29.534V30.574C146.224 30.704 145.132 30.756 144.092 30.756C141.492 30.756 140.4 30.132 142.064 27.974L141.518 27.662C138.736 30.418 140.53 32.108 144.17 32.108C145.21 32.108 146.276 32.056 147.342 31.952C147.394 33.538 147.472 34.942 147.524 35.982C147.004 35.93 146.458 35.904 145.886 35.904C142.636 35.904 139.958 37.048 139.958 39.102C139.958 40.948 141.83 42.118 144.378 42.118C147.264 42.118 149.084 40.844 149.084 38.634C149.084 38.296 149.058 37.958 149.032 37.594C151.008 38.192 152.75 39.206 154.076 40.428C154.544 40.87 154.83 41.13 155.298 41.13C155.714 41.13 156 40.87 156 40.376C156 39.882 155.688 39.414 155.116 38.946C154.362 38.27 152.152 36.814 148.928 36.19C148.798 34.968 148.642 33.512 148.564 31.822C151.112 31.536 153.374 31.042 154.362 30.678C154.83 30.496 155.116 30.236 155.116 29.846C155.116 29.3 154.44 29.04 153.894 29.04C153.582 29.04 153.114 29.326 152.256 29.612C151.216 29.95 149.916 30.236 148.512 30.418V29.846ZM175.086 22.098C175.71 22.15 176.23 22.202 176.646 22.306C177.088 22.41 177.296 22.618 177.322 23.034C177.4 24.074 177.4 26.128 177.374 27.714C175.008 28.208 171.732 28.988 170.016 29.404C170.068 28.208 170.094 27.168 170.172 26.544C170.25 25.53 170.666 25.426 170.666 24.958C170.666 24.282 169.002 23.424 168.04 23.424C167.364 23.424 166.792 23.606 166.298 23.762L166.324 24.308C166.818 24.36 167.442 24.386 167.832 24.542C168.248 24.698 168.404 24.854 168.456 25.608C168.534 26.362 168.534 27.974 168.508 29.768C166.792 30.21 164.062 30.912 163.464 30.912C162.84 30.912 162.19 30.158 161.774 29.456L161.384 29.612C161.384 30.106 161.358 30.6 161.514 30.912C161.904 31.874 162.892 32.784 163.62 32.784C164.322 32.784 165.388 32.082 168.508 31.12C168.534 33.59 168.508 36.138 168.586 37.568C168.716 40.506 170.744 41.312 174.488 41.312C177.192 41.312 179.48 41.13 180.52 40.896C181.3 40.714 181.612 40.506 181.612 39.986C181.612 39.362 180.91 39.05 180.052 39.05C179.22 39.05 177.27 39.7 174.072 39.7C170.562 39.7 170.016 39.362 169.912 36.58C169.886 35.384 169.938 32.94 169.964 30.678C171.81 30.184 174.8 29.482 177.348 29.014C177.296 30.47 177.14 32.368 176.932 33.2C176.75 33.72 176.49 33.824 176.1 33.824C175.658 33.824 174.384 33.486 173.24 33.148L173.058 33.72C174.098 34.162 175.242 34.604 175.632 35.384C175.918 35.878 176.126 35.956 176.49 35.956C177.426 35.956 177.998 35.228 178.258 34.032C178.544 32.862 178.7 30.626 178.778 28.78C179.272 28.702 179.714 28.65 180.13 28.598C181.95 28.442 182.886 28.598 183.9 28.598C184.628 28.598 185.018 28.468 185.018 27.948C185.018 27.142 184.082 26.752 183.016 26.752C182.444 26.752 180.832 27.038 178.83 27.428C178.882 26.206 178.908 25.166 178.96 24.36C178.986 23.45 179.48 23.294 179.48 22.852C179.48 22.15 177.946 21.162 176.698 21.162C176.178 21.162 175.658 21.37 175.06 21.578L175.086 22.098ZM198.332 22.306C198.67 22.54 198.748 22.904 198.41 23.554C197.474 25.27 193.548 31.718 191.286 35.644C189.934 37.984 188.92 39.596 188.92 40.532C188.92 41.26 189.336 41.728 189.804 41.728C190.298 41.728 190.558 41.416 190.792 40.844C191.156 39.908 191.65 38.374 192.43 36.71C193.678 34.162 195.888 31.77 198.358 31.77C199.866 31.77 200.308 32.68 200.308 33.824C200.308 35.358 200.074 36.944 200.1 38.374C200.1 40.714 201.452 41.832 203.636 41.832C206.262 41.832 209.408 40.116 210.526 34.396L209.954 34.214C208.81 37.282 206.834 40.142 203.948 40.142C202.44 40.142 201.79 39.388 201.79 37.984C201.79 36.788 201.92 35.228 201.894 34.006C201.868 31.926 200.828 30.834 198.696 30.834C197.682 30.834 196.46 31.276 195.108 32.082C194.9 32.212 194.77 32.082 194.9 31.874C195.992 29.976 198.618 26.18 199.71 24.906C200.36 24.1 201.088 23.944 201.088 23.424C201.088 22.618 199.97 21.5 198.774 21.214C198.306 21.058 197.5 21.006 196.98 21.084L196.824 21.604C197.292 21.76 197.994 22.02 198.332 22.306ZM227.766 21.214C228.78 21.994 228.832 22.384 228.39 22.67C227.142 23.528 221.734 25.218 217.262 26.05L217.392 26.7C221.006 26.31 222.93 25.946 224.334 25.634C225.114 26.336 225.244 26.934 225.27 28.078C225.27 28.65 225.27 29.196 225.244 29.742C223.138 29.976 218.614 30.47 216.924 30.47C216.274 30.47 215.806 29.82 215.234 29.04L214.818 29.196C214.844 29.768 214.922 30.236 215.052 30.496C215.338 31.198 216.378 32.342 217.028 32.342C217.678 32.342 218.224 32.004 218.978 31.822C219.966 31.588 223.164 31.12 225.192 30.912C224.776 35.774 222.852 38.868 217.99 41.858L218.38 42.352C223.97 39.934 226.518 36.06 226.934 30.73C228.806 30.6 231.406 30.47 232.55 30.47C233.85 30.47 234.812 30.678 235.254 30.678C235.8 30.678 235.982 30.392 235.982 29.976C235.982 29.222 234.526 28.702 233.486 28.702C232.992 28.702 232.81 28.858 231.172 29.092C230.34 29.196 228.598 29.404 226.986 29.56C226.986 29.196 226.986 28.832 226.986 28.468C226.986 27.402 227.324 27.194 227.324 26.674C227.324 26.336 226.57 25.712 225.79 25.27C227.168 24.906 228.416 24.438 229.768 23.918C230.392 23.684 231.224 23.736 231.224 23.294C231.224 22.826 230.678 22.202 230.262 21.864C229.82 21.5 229.144 21.11 228.104 20.85L227.766 21.214ZM244.505 29.742C244.687 30.262 245.025 30.756 245.311 31.094C245.701 31.536 246.143 31.9 246.637 31.9C247.157 31.9 248.145 31.692 249.471 31.51C249.861 32.004 250.043 32.498 250.043 33.33C250.043 34.266 249.991 36.268 249.887 37.672C247.339 37.932 244.999 38.166 244.323 38.166C243.621 38.166 243.127 37.724 242.659 37.178L242.321 37.334C242.373 37.88 242.425 38.192 242.555 38.504C242.763 38.998 243.803 39.96 244.453 39.96C244.947 39.96 245.389 39.648 246.195 39.44C248.119 38.946 252.253 38.53 254.359 38.634C256.569 38.686 258.103 39.206 258.701 39.206C259.143 39.206 259.403 38.946 259.403 38.556C259.403 37.802 257.713 36.996 256.829 36.996C256.569 36.996 256.309 37.23 255.347 37.282C254.203 37.334 252.799 37.438 251.369 37.542C251.447 36.19 251.629 34.526 251.733 33.694C251.811 33.226 251.993 32.81 251.993 32.446C251.993 32.004 251.499 31.614 250.849 31.328C252.773 31.12 255.009 30.912 255.789 30.834C256.361 30.782 256.595 30.47 256.595 30.106C256.595 29.586 255.321 29.092 254.463 29.092C253.969 29.092 254.125 29.612 251.213 30.054C249.393 30.34 247.729 30.522 246.845 30.522C246.091 30.522 245.467 30.08 244.817 29.534L244.505 29.742ZM275.291 30.366C275.915 31.64 275.915 32.706 276.695 32.706C277.189 32.706 277.553 32.394 277.553 31.822C277.553 30.886 277.007 30.028 276.175 29.326C275.603 28.78 275.005 28.364 274.251 27.948L273.939 28.234C274.459 28.832 274.927 29.664 275.291 30.366ZM283.377 31.198C283.663 30.6 284.105 30.392 284.105 29.976C284.105 29.326 282.857 28.182 281.895 28.026C281.479 27.948 281.011 28 280.673 28.026L280.543 28.416C281.557 28.832 281.921 29.144 281.921 29.56C281.921 31.536 277.995 38.244 271.105 41.832L271.417 42.3C277.683 39.908 281.453 35.41 283.377 31.198ZM270.741 31.796C271.469 33.2 271.495 34.214 272.327 34.214C272.873 34.214 273.133 33.824 273.133 33.278C273.133 32.446 272.561 31.536 271.495 30.626C271.053 30.21 270.377 29.664 269.675 29.3L269.363 29.586C269.857 30.21 270.325 30.938 270.741 31.796ZM300.929 21.916C301.397 21.994 302.125 22.098 302.593 22.28C302.983 22.436 303.061 22.618 303.061 23.112C303.035 23.892 302.723 25.946 302.411 27.35C299.551 27.714 296.691 28.026 295.833 28.026C295.131 28.026 294.741 27.142 294.377 26.44L293.857 26.57C293.831 27.09 293.805 27.714 294.013 28.208C294.221 28.806 295.261 30.08 295.937 30.08C296.457 30.08 296.613 29.716 297.419 29.534C298.147 29.352 300.435 28.936 302.099 28.65C301.033 32.316 299.083 37.126 292.765 41.624L293.181 42.144C300.955 38.088 303.061 31.484 303.867 28.39C305.479 28.156 307.767 27.844 309.067 27.844C309.275 27.844 309.379 27.948 309.379 28.13C309.379 29.794 308.339 36.138 306.675 38.192C306.311 38.634 306.051 38.66 305.349 38.452C304.829 38.27 303.503 37.672 302.411 37.178L302.099 37.672C303.581 38.764 304.413 39.206 304.673 40.168C304.829 40.714 305.037 40.948 305.479 40.948C306.389 40.948 307.559 40.246 308.209 38.972C309.769 36.086 310.471 32.628 311.017 28.962C311.121 28.234 311.771 28.312 311.771 27.74C311.771 27.194 310.237 25.972 309.691 25.972C309.275 25.972 309.067 26.544 308.365 26.622C307.507 26.726 305.921 26.934 304.153 27.142C304.413 26.076 304.621 24.906 304.751 24.23C304.933 23.242 305.531 23.242 305.531 22.67C305.531 22.02 303.789 21.084 302.801 21.058C302.307 21.032 301.475 21.24 300.929 21.37V21.916ZM318.559 30.158C318.585 30.678 318.611 31.12 318.793 31.614C319.157 32.498 320.379 33.772 321.107 33.772C321.861 33.772 322.147 33.382 323.629 33.226C325.579 32.992 332.885 32.602 334.523 32.602C336.109 32.602 337.019 32.654 337.929 32.654C338.813 32.654 339.073 32.368 339.073 31.9C339.073 31.198 337.903 30.756 336.915 30.756C336.239 30.756 335.511 30.912 333.769 31.042C332.573 31.094 323.473 31.692 321.159 31.692C320.067 31.692 319.651 30.886 319.079 30.002L318.559 30.158Z" fill="#126E82"/>
<path opacity="0.5" d="M89.83 56.61V58.79H85.59V56.61H89.83ZM90.05 54.27H87.9V53.07C88.15 53.03 88.24 52.93 88.26 52.79L87.25 52.69V56.32H85.7L84.96 56.01V59.77H85.06C85.38 59.77 85.59 59.63 85.59 59.57V59.09H89.83V59.73H89.92C90.23 59.73 90.47 59.57 90.47 59.53V56.66C90.67 56.62 90.76 56.56 90.83 56.49L90.12 55.94L89.8 56.32H87.9V54.56H91.14C91.29 54.56 91.38 54.51 91.41 54.41C91.07 54.09 90.54 53.66 90.54 53.66L90.05 54.27ZM90.13 52.06H87.56V51C87.81 50.96 87.91 50.86 87.93 50.72L86.92 50.62V52.06H84.26L83.5 51.74V54.51C83.5 56.28 83.38 58.15 82.37 59.65L82.51 59.76C84.03 58.28 84.14 56.15 84.14 54.5V52.36H91.29C91.43 52.36 91.52 52.31 91.54 52.2C91.2 51.88 90.64 51.43 90.64 51.43L90.13 52.06ZM99.7 51.4V52.63H95.14V51.4H99.7ZM95.14 52.92H99.7V53.28H99.8C100.01 53.28 100.34 53.14 100.35 53.08V51.52C100.54 51.48 100.71 51.4 100.78 51.32L99.97 50.72L99.6 51.11H95.19L94.49 50.8V53.37H94.58C94.84 53.37 95.14 53.22 95.14 53.16V52.92ZM100.12 54.03V54.96H94.75V54.03H100.12ZM100.12 56.21H94.75V55.24H100.12V56.21ZM94.75 57.47V56.5H100.12V57.47H94.75ZM94.75 57.76H100.12V58.16H100.22C100.43 58.16 100.77 58 100.78 57.94V54.16C100.98 54.12 101.13 54.04 101.2 53.96L100.38 53.33L100.02 53.74H94.8L94.09 53.42V58.32H94.2C94.48 58.32 94.75 58.16 94.75 58.09V57.76ZM93.02 59.78C94.46 59.6 95.76 59.12 96.58 58.63C96.86 58.66 97 58.61 97.05 58.52L96.14 58.03C95.52 58.57 94.23 59.28 92.94 59.62L93.02 59.78ZM98.15 58.36C99.13 58.63 100.56 59.28 101.22 59.79C102.05 59.89 101.75 58.43 98.21 58.2L98.15 58.36ZM106.3 51.77C106.87 51.76 107.12 51.74 107.29 52C107.52 52.33 107.73 52.8 107.98 53.27C107.39 53.44 106.63 53.58 106.12 53.58C105.33 53.58 105.04 53.37 104.43 52.88L104.25 53.04C104.8 53.81 105.17 54.16 106.12 54.15C106.77 54.15 107.65 53.95 108.27 53.77C108.76 54.54 109.29 55.29 109.8 55.87C109.87 55.95 109.85 55.96 109.75 55.94C109.3 55.8 108.52 55.58 107.57 55.58C106.04 55.58 104.88 56.39 104.88 57.47C104.88 58.83 106.4 59.36 108.07 59.36C109.32 59.36 109.8 59.17 109.8 58.91C109.8 58.7 109.58 58.58 109.28 58.58C108.93 58.58 108.6 58.69 107.84 58.69C106.28 58.69 105.39 58.16 105.39 57.39C105.39 56.57 106.26 55.95 107.38 55.95C108.4 55.95 109.24 56.28 109.83 56.62C110.11 56.78 110.26 56.93 110.47 56.93C110.69 56.93 110.84 56.55 110.83 56.27C110.82 56.1 110.74 56.01 110.5 55.78C109.86 55.17 109.22 54.42 108.74 53.62C109.59 53.32 110.34 52.91 110.65 52.66C110.79 52.54 110.85 52.37 110.76 52.26C110.65 52.13 110.36 52.11 110.17 52.19C109.88 52.33 109.58 52.69 108.47 53.11C108.19 52.54 108.06 52.05 107.92 51.63C107.87 51.45 107.47 51.33 107.1 51.33C106.88 51.33 106.59 51.41 106.26 51.58L106.3 51.77ZM117.82 51.81C117.95 51.9 117.98 52.04 117.85 52.29C117.49 52.95 115.98 55.43 115.11 56.94C114.59 57.84 114.2 58.46 114.2 58.82C114.2 59.1 114.36 59.28 114.54 59.28C114.73 59.28 114.83 59.16 114.92 58.94C115.06 58.58 115.25 57.99 115.55 57.35C116.03 56.37 116.88 55.45 117.83 55.45C118.41 55.45 118.58 55.8 118.58 56.24C118.58 56.83 118.49 57.44 118.5 57.99C118.5 58.89 119.02 59.32 119.86 59.32C120.87 59.32 122.08 58.66 122.51 56.46L122.29 56.39C121.85 57.57 121.09 58.67 119.98 58.67C119.4 58.67 119.15 58.38 119.15 57.84C119.15 57.38 119.2 56.78 119.19 56.31C119.18 55.51 118.78 55.09 117.96 55.09C117.57 55.09 117.1 55.26 116.58 55.57C116.5 55.62 116.45 55.57 116.5 55.49C116.92 54.76 117.93 53.3 118.35 52.81C118.6 52.5 118.88 52.44 118.88 52.24C118.88 51.93 118.45 51.5 117.99 51.39C117.81 51.33 117.5 51.31 117.3 51.34L117.24 51.54C117.42 51.6 117.69 51.7 117.82 51.81ZM124.586 57.44C125.476 58.07 125.886 58.68 126.206 59.34C126.346 59.64 126.476 59.76 126.686 59.76C126.926 59.76 127.096 59.6 127.096 59.31C127.096 59.09 127.036 58.9 126.856 58.64C126.526 58.16 125.896 57.65 124.696 57.27L124.586 57.44ZM135.976 56.48V52.22H137.266V56.48H135.976ZM137.536 51.52L137.166 51.93H136.026L135.376 51.61V58.16H135.486C135.756 58.16 135.976 58 135.976 57.93V56.78H137.266V57.67H137.366C137.576 57.67 137.876 57.5 137.886 57.44V52.34C138.086 52.3 138.256 52.22 138.326 52.14L137.536 51.52ZM143.086 55.7H141.406V51.76C142.106 51.65 142.746 51.51 143.256 51.37C143.486 51.47 143.676 51.46 143.756 51.39L143.006 50.69C141.976 51.16 139.976 51.68 138.276 51.9L138.316 52.06C139.126 52.04 139.976 51.96 140.766 51.86V55.7H137.896L137.976 55.99H140.766V58.78C140.766 58.94 140.706 59.01 140.496 59.01C140.256 59.01 139.106 58.92 139.106 58.92V59.08C139.616 59.14 139.896 59.22 140.066 59.32C140.206 59.41 140.286 59.58 140.306 59.77C141.276 59.69 141.406 59.31 141.406 58.8V55.99H144.156C144.296 55.99 144.396 55.94 144.426 55.83C144.096 55.52 143.556 55.11 143.556 55.11L143.086 55.7ZM138.606 52.71C138.956 53.35 139.316 54.34 139.286 55.11C139.916 55.75 140.606 54.17 138.746 52.65L138.606 52.71ZM142.176 55.28C142.656 54.68 143.176 53.79 143.546 52.96C143.756 52.97 143.866 52.88 143.916 52.77L142.896 52.44C142.666 53.42 142.316 54.5 142.016 55.2L142.176 55.28ZM152.746 54.42C152.886 54.42 152.986 54.34 152.996 54.19C153.006 53.97 152.866 53.73 152.586 53.49C152.316 53.27 151.916 53.01 151.366 52.81L151.236 52.97C151.736 53.34 152.006 53.63 152.236 53.94C152.456 54.22 152.586 54.42 152.746 54.42ZM153.736 53.56C153.886 53.56 153.966 53.46 153.966 53.32C153.966 53.08 153.806 52.84 153.506 52.59C153.256 52.39 152.856 52.16 152.276 51.98L152.146 52.15C152.636 52.45 152.986 52.79 153.226 53.08C153.456 53.37 153.566 53.56 153.736 53.56ZM145.656 56.02C145.866 56.26 146.256 56.52 146.526 56.52C146.806 56.52 146.956 56.31 147.206 55.98C147.586 55.49 148.296 54.54 148.656 54.12C148.806 53.94 148.926 53.86 149.046 53.86C149.196 53.86 149.356 53.92 149.546 54.11C150.336 54.95 151.136 56.02 151.986 56.87C152.836 57.71 153.696 58.33 154.066 58.33C154.286 58.33 154.386 58.2 154.386 58C154.386 57.77 154.256 57.54 153.986 57.4C151.986 56.32 150.966 54.76 149.886 53.73C149.576 53.42 149.306 53.33 149.046 53.33C148.786 53.33 148.586 53.46 148.376 53.69C147.996 54.11 147.176 55.04 146.716 55.47C146.536 55.63 146.366 55.73 146.236 55.73C146.056 55.73 145.826 55.58 145.586 55.36L145.426 55.5C145.476 55.7 145.546 55.89 145.656 56.02ZM156.156 52.82C156.166 52.97 156.156 53.12 156.196 53.28C156.286 53.62 156.786 54.06 157.156 54.06C157.366 54.06 157.566 53.9 157.766 53.81C158.366 53.53 159.786 53.06 160.906 52.79C161.016 52.76 161.026 52.82 160.956 52.88C159.826 53.77 159.456 55.09 159.456 56.27C159.456 57.4 159.786 58 160.416 58.46C161.096 58.98 162.086 59.02 162.666 59.02C163.116 59.02 163.386 58.93 163.386 58.69C163.386 58.44 163.056 58.27 162.816 58.27C162.406 58.27 161.526 58.33 160.876 57.94C160.476 57.69 160.026 57.24 160.026 56.15C160.026 54.15 161.026 53.22 161.476 52.95C161.976 52.64 162.676 52.58 163.156 52.58C163.526 52.58 163.826 52.61 164.016 52.61C164.236 52.61 164.356 52.49 164.356 52.35C164.356 52.21 164.276 52.1 164.056 52C163.896 51.93 163.606 51.89 163.346 51.89C163.006 51.89 162.226 52.03 161.076 52.3C159.426 52.68 157.496 53.26 156.976 53.26C156.756 53.26 156.486 53.02 156.346 52.76L156.156 52.82ZM169.456 58.88C168.786 58.88 168.426 58.59 168.426 58.24C168.426 57.83 169.056 57.47 170.036 57.47C170.346 57.47 170.656 57.5 170.946 57.55C170.936 58.5 170.666 58.88 169.456 58.88ZM171.316 54.71C171.316 54.24 171.336 53.84 171.356 53.51C172.416 53.36 173.346 53.14 173.706 53.01C173.896 52.94 174.036 52.86 174.036 52.69C174.036 52.48 173.756 52.38 173.516 52.38C173.376 52.38 173.206 52.49 172.936 52.58C172.626 52.68 172.066 52.82 171.416 52.93C171.446 52.69 171.476 52.49 171.506 52.32C171.556 52.06 171.686 51.98 171.686 51.77C171.686 51.51 171.066 51.23 170.636 51.23C170.366 51.23 170.126 51.3 169.936 51.39L169.966 51.6C170.286 51.63 170.486 51.65 170.696 51.71C170.856 51.77 170.896 51.82 170.896 52.02C170.896 52.11 170.886 52.5 170.866 53.01C170.336 53.08 169.776 53.13 169.266 53.13C168.326 53.13 167.986 52.89 167.496 52.48L167.326 52.62C167.836 53.42 168.426 53.66 169.356 53.66C169.836 53.66 170.356 53.62 170.856 53.57C170.846 53.91 170.846 54.26 170.846 54.59V54.99C170.436 55.04 170.016 55.06 169.616 55.06C168.616 55.06 168.196 54.82 168.836 53.99L168.626 53.87C167.556 54.93 168.246 55.58 169.646 55.58C170.046 55.58 170.456 55.56 170.866 55.52C170.886 56.13 170.916 56.67 170.936 57.07C170.736 57.05 170.526 57.04 170.306 57.04C169.056 57.04 168.026 57.48 168.026 58.27C168.026 58.98 168.746 59.43 169.726 59.43C170.836 59.43 171.536 58.94 171.536 58.09C171.536 57.96 171.526 57.83 171.516 57.69C172.276 57.92 172.946 58.31 173.456 58.78C173.636 58.95 173.746 59.05 173.926 59.05C174.086 59.05 174.196 58.95 174.196 58.76C174.196 58.57 174.076 58.39 173.856 58.21C173.566 57.95 172.716 57.39 171.476 57.15C171.426 56.68 171.366 56.12 171.336 55.47C172.316 55.36 173.186 55.17 173.566 55.03C173.746 54.96 173.856 54.86 173.856 54.71C173.856 54.5 173.596 54.4 173.386 54.4C173.266 54.4 173.086 54.51 172.756 54.62C172.356 54.75 171.856 54.86 171.316 54.93V54.71ZM181.206 56.83C180.746 56.83 180.396 56.44 180.396 55.87C180.396 55.36 180.716 54.92 181.216 54.92C181.646 54.92 181.966 55.25 181.966 55.9C181.966 56.59 181.706 56.83 181.206 56.83ZM180.696 51.63C180.996 51.65 181.206 51.66 181.356 51.7C181.516 51.75 181.566 51.81 181.586 52.01C181.606 52.26 181.626 52.6 181.636 52.96C180.456 53.09 178.396 53.4 178.026 53.39C177.686 53.39 177.496 53.07 177.276 52.74L177.086 52.81C177.096 53.01 177.116 53.24 177.186 53.41C177.296 53.69 177.766 54.14 178.096 54.14C178.356 54.14 178.556 53.98 179.006 53.87C179.616 53.72 180.676 53.49 181.656 53.38C181.676 53.83 181.696 54.26 181.706 54.56C181.576 54.53 181.446 54.51 181.296 54.51C180.476 54.51 179.986 55.19 179.986 55.92C179.986 56.94 180.786 57.71 181.766 57.26C181.406 58.24 180.406 58.95 179.186 59.4L179.316 59.65C181.246 59.17 182.626 58.05 182.626 56.22C182.626 55.64 182.496 55.17 182.206 54.87C182.206 54.37 182.196 53.81 182.196 53.33C184.206 53.16 184.966 53.4 185.286 53.4C185.476 53.4 185.566 53.32 185.566 53.14C185.566 52.82 185.046 52.63 184.696 52.63C184.486 52.63 183.846 52.72 182.196 52.9C182.206 52.66 182.206 52.46 182.216 52.33C182.236 52.08 182.386 51.92 182.386 51.69C182.386 51.44 181.766 51.22 181.356 51.22C181.096 51.22 180.856 51.34 180.676 51.43L180.696 51.63ZM189.736 51.72C189.976 51.74 190.346 51.79 190.496 51.87C190.626 51.93 190.656 52.01 190.656 52.13C190.656 52.32 190.436 52.97 190.136 53.74C189.396 53.9 188.496 54.14 188.176 54.14C187.886 54.14 187.816 53.82 187.706 53.55L187.506 53.58C187.456 53.77 187.446 54 187.486 54.16C187.566 54.48 187.936 54.86 188.196 54.86C188.446 54.86 188.586 54.75 189.016 54.58C189.216 54.5 189.556 54.38 189.926 54.26C189.686 54.84 189.416 55.43 189.176 55.91C188.606 56.99 188.166 57.67 187.616 58.38C187.486 58.55 187.456 58.67 187.456 58.84C187.456 59.07 187.616 59.21 187.756 59.21C187.906 59.21 188.016 59.14 188.166 58.9C188.596 58.27 189.096 57.29 189.646 56.18C189.966 55.51 190.306 54.75 190.596 54.08C190.936 53.99 191.266 53.93 191.496 53.93C192.056 53.93 192.226 54.24 192.226 54.97C192.226 56.11 191.856 57.33 191.526 57.84C191.266 58.25 191.036 58.36 190.726 58.36C190.496 58.36 190.046 58.09 189.526 57.76L189.406 57.92C189.966 58.4 190.036 58.52 190.106 58.67C190.236 58.96 190.306 59.1 190.636 59.1C191.146 59.1 191.556 58.85 191.846 58.47C192.436 57.73 192.796 56.33 192.796 55.12C192.796 53.94 192.366 53.53 191.616 53.53C191.386 53.53 191.056 53.57 190.786 53.62C190.976 53.18 191.126 52.8 191.226 52.56C191.336 52.31 191.536 52.2 191.536 51.98C191.536 51.73 190.796 51.38 190.386 51.38C190.116 51.38 189.906 51.44 189.736 51.51V51.72ZM193.456 53.78C194.106 53.9 194.506 54.17 194.786 54.56C195.086 54.98 195.176 55.42 195.196 55.68C195.206 55.94 195.176 56.03 194.966 56.11C194.696 56.21 194.056 56.34 193.686 56.41L193.746 56.65C194.086 56.61 194.716 56.56 194.926 56.6C195.216 56.66 195.196 56.94 195.486 56.94C195.776 56.93 195.906 56.6 195.906 56.2C195.906 55.43 195.656 54.77 195.286 54.37C194.886 53.92 194.386 53.66 193.576 53.54L193.456 53.78ZM201.536 57.91C201.176 57.91 200.926 58.18 200.926 58.52C200.926 58.85 201.176 59.12 201.536 59.12C201.896 59.12 202.146 58.85 202.146 58.52C202.146 58.18 201.896 57.91 201.536 57.91ZM200.776 51.91C201.126 51.77 201.346 51.73 201.716 51.73C202.656 51.73 203.316 52.12 203.316 53.04C203.316 53.69 202.986 54.12 202.226 54.68C201.496 55.23 201.276 55.51 201.276 55.96C201.276 56.26 201.296 56.59 201.346 56.96H201.696L201.746 56.24C201.776 55.73 201.976 55.53 202.736 55.04C203.726 54.41 204.136 53.83 204.136 53.06C204.136 52.08 203.406 51.35 201.886 51.35C200.576 51.35 199.596 52.03 199.466 53.11C199.566 53.32 199.726 53.39 199.906 53.39C200.206 53.39 200.386 53.2 200.516 52.74L200.776 51.91Z" fill="#126E82"/>
<defs>
<linearGradient id="paint0_linear" x1="66" y1="36" x2="0" y2="36" gradientUnits="userSpaceOnUse">
<stop stop-color="#126E82"/>
<stop offset="1" stop-color="#D8E3E7" stop-opacity="0.5"/>
</linearGradient>
</defs>
</svg>
